<svg width="586" height="368" viewBox="0 0 586 368" fill="none" xmlns="http://www.w3.org/2000/svg">
  <g clip-path="url(#clip0_56_265)">
    <path
      d="M452.515 366.838L452.527 366.351C452.773 358.188 455 350.17 459.054 342.856C463.107 335.542 468.889 329.107 475.999 323.997C480.012 321.159 484.409 318.786 489.084 316.932L489.53 316.754L489.606 317.186C490.511 322.341 491.945 327.601 492.613 329.936L497.09 314.282L497.588 314.153C499.869 313.553 502.299 313.579 504.564 314.228C506.829 314.876 508.825 316.117 510.296 317.791C511.83 319.466 512.77 321.514 512.994 323.671C513.218 325.828 512.716 327.997 511.552 329.896C510.509 331.638 509.483 333.456 508.49 335.214C505.081 341.255 501.555 347.501 496.418 352.354C492.489 355.993 487.703 358.8 482.408 360.57C477.114 362.339 471.445 363.027 465.816 362.582L452.515 366.838Z"
      fill="#F2F2F2" />
    <path
      d="M316.387 223.887H200.803C196.646 223.883 192.661 222.401 189.721 219.767C186.782 217.134 185.128 213.563 185.123 209.838V64.1505C185.145 47.1426 192.695 30.8369 206.118 18.8105C219.54 6.78413 237.739 0.019245 256.721 0H316.387C320.544 0.00420539 324.53 1.48564 327.469 4.11931C330.409 6.75298 332.062 10.3238 332.067 14.0484V209.838C332.062 213.563 330.409 217.134 327.469 219.767C324.53 222.401 320.544 223.883 316.387 223.887Z"
      fill="#F2F2F2" />
    <path
      d="M204.845 126.61C203.094 126.612 201.415 127.236 200.177 128.346C198.939 129.455 198.243 130.959 198.241 132.527V165.781C198.243 167.349 198.939 168.853 200.177 169.963C201.415 171.072 203.094 171.696 204.845 171.698H317.171C318.922 171.696 320.6 171.072 321.838 169.963C323.076 168.853 323.773 167.349 323.775 165.781V132.527C323.773 130.959 323.076 129.455 321.838 128.345C320.6 127.236 318.921 126.612 317.171 126.61L204.845 126.61Z"
      fill="white" />
    <path
      d="M317.441 105.036H205.115C203.221 105.035 201.405 104.36 200.065 103.159C198.726 101.959 197.972 100.332 197.97 98.6348C197.984 88.1212 202.651 78.0416 210.948 70.6074C219.245 63.1731 230.495 58.9914 242.229 58.9795H317.441C319.336 58.9814 321.152 59.6564 322.491 60.8566C323.831 62.0567 324.584 63.6839 324.586 65.3812V98.6345C324.584 100.332 323.831 101.959 322.491 103.159C321.152 104.359 319.335 105.035 317.441 105.036Z"
      fill="white" />
    <path
      d="M365.802 166.596H236.497C235.737 166.595 235.008 166.324 234.471 165.843C233.934 165.361 233.631 164.709 233.63 164.028V133.501C233.631 132.82 233.934 132.168 234.471 131.686C235.008 131.205 235.737 130.934 236.497 130.933H365.802C366.562 130.934 367.291 131.205 367.828 131.686C368.366 132.168 368.668 132.82 368.669 133.501V164.028C368.668 164.709 368.366 165.361 367.828 165.843C367.291 166.324 366.562 166.595 365.802 166.596Z"
      fill="white" />
    <path
      d="M365.802 167.081H236.497C235.593 167.08 234.727 166.758 234.088 166.186C233.45 165.613 233.09 164.837 233.089 164.028V133.502C233.09 132.692 233.45 131.916 234.088 131.344C234.727 130.771 235.593 130.449 236.497 130.448H365.802C366.706 130.449 367.572 130.771 368.211 131.344C368.85 131.916 369.209 132.692 369.21 133.502V164.028C369.209 164.837 368.85 165.613 368.211 166.186C367.572 166.758 366.706 167.08 365.802 167.081ZM236.497 131.418C235.88 131.419 235.289 131.638 234.853 132.029C234.417 132.419 234.172 132.949 234.171 133.502V164.028C234.172 164.58 234.417 165.11 234.853 165.5C235.289 165.891 235.88 166.111 236.497 166.111H365.802C366.419 166.111 367.01 165.891 367.446 165.5C367.882 165.11 368.127 164.58 368.128 164.028V133.502C368.127 132.949 367.882 132.419 367.446 132.029C367.01 131.638 366.419 131.419 365.802 131.418H236.497Z"
      fill="#CCCCCC" />
    <path
      d="M247.492 145.402C250.061 145.402 252.144 143.536 252.144 141.234C252.144 138.932 250.061 137.066 247.492 137.066C244.923 137.066 242.841 138.932 242.841 141.234C242.841 143.536 244.923 145.402 247.492 145.402Z"
      fill="#E6E6E6" />
    <path
      d="M358.073 151.737H244.226C244.043 151.738 243.863 151.706 243.694 151.644C243.526 151.581 243.373 151.49 243.244 151.375C243.115 151.259 243.013 151.123 242.943 150.972C242.873 150.821 242.837 150.659 242.837 150.496C242.837 150.333 242.873 150.171 242.943 150.02C243.013 149.87 243.115 149.733 243.244 149.617C243.373 149.502 243.526 149.411 243.694 149.349C243.863 149.286 244.043 149.255 244.226 149.255H358.073C358.255 149.255 358.436 149.286 358.604 149.349C358.772 149.411 358.926 149.502 359.055 149.617C359.184 149.733 359.286 149.87 359.356 150.02C359.425 150.171 359.461 150.333 359.461 150.496C359.461 150.659 359.425 150.821 359.356 150.972C359.286 151.123 359.184 151.259 359.055 151.375C358.926 151.49 358.772 151.581 358.604 151.644C358.436 151.706 358.255 151.738 358.073 151.737H358.073Z"
      fill="#E6E6E6" />
    <path
      d="M346.761 156.642H244.226C243.858 156.642 243.506 156.511 243.246 156.278C242.986 156.045 242.84 155.73 242.84 155.4C242.84 155.071 242.986 154.755 243.246 154.523C243.506 154.29 243.858 154.159 244.226 154.159H346.761C347.128 154.159 347.481 154.29 347.74 154.523C348 154.755 348.146 155.071 348.146 155.4C348.146 155.73 348 156.045 347.74 156.278C347.481 156.511 347.128 156.642 346.761 156.642Z"
      fill="#E6E6E6" />
    <path
      d="M231.468 365.695L199.82 354.392C199.114 354.139 198.549 353.646 198.249 353.02C197.949 352.395 197.938 351.688 198.218 351.055L246.095 243.434C246.377 242.802 246.927 242.296 247.626 242.027C248.324 241.758 249.113 241.748 249.819 241.999L281.468 253.302C282.173 253.555 282.738 254.048 283.038 254.674C283.339 255.299 283.35 256.006 283.069 256.639L235.193 364.26C234.91 364.892 234.36 365.398 233.662 365.667C232.963 365.936 232.175 365.946 231.468 365.695Z"
      fill="white" />
    <path
      d="M231.268 366.145L199.619 354.843C198.78 354.542 198.109 353.956 197.752 353.212C197.395 352.468 197.382 351.628 197.716 350.876L245.592 243.255C245.927 242.503 246.582 241.901 247.412 241.582C248.242 241.262 249.18 241.25 250.019 241.549L281.668 252.852C282.507 253.152 283.178 253.739 283.535 254.482C283.892 255.226 283.905 256.066 283.572 256.818L235.695 364.44C235.36 365.191 234.705 365.793 233.875 366.113C233.045 366.433 232.108 366.444 231.268 366.145ZM198.721 351.235C198.493 351.748 198.502 352.322 198.746 352.829C198.989 353.337 199.448 353.737 200.02 353.942L231.669 365.245C232.242 365.449 232.882 365.441 233.448 365.222C234.014 365.004 234.461 364.594 234.69 364.081L282.567 256.459C282.794 255.946 282.785 255.373 282.542 254.865C282.298 254.358 281.84 253.957 281.267 253.752L249.619 242.45C249.046 242.246 248.406 242.254 247.839 242.472C247.273 242.69 246.826 243.101 246.597 243.614L198.721 351.235Z"
      fill="#CCCCCC" />
    <path
      d="M252.704 260.568C255.273 260.568 257.356 258.702 257.356 256.4C257.356 254.098 255.273 252.232 252.704 252.232C250.135 252.232 248.052 254.098 248.052 256.4C248.052 258.702 250.135 260.568 252.704 260.568Z"
      fill="#E6E6E6" />
    <path
      d="M220.85 353.019C220.509 352.896 220.236 352.658 220.091 352.356C219.946 352.053 219.94 351.712 220.076 351.406L262.229 256.651C262.296 256.499 262.396 256.361 262.523 256.245C262.65 256.128 262.801 256.034 262.968 255.97C263.136 255.906 263.315 255.871 263.497 255.869C263.679 255.867 263.86 255.897 264.029 255.957C264.198 256.018 264.352 256.107 264.482 256.221C264.612 256.335 264.716 256.47 264.788 256.62C264.86 256.77 264.898 256.931 264.901 257.094C264.903 257.257 264.87 257.418 264.802 257.57L222.649 352.325C222.513 352.631 222.247 352.875 221.91 353.005C221.572 353.135 221.191 353.14 220.85 353.019Z"
      fill="#E6E6E6" />
    <path
      d="M230.123 345.419C229.781 345.297 229.509 345.059 229.363 344.756C229.218 344.454 229.213 344.113 229.349 343.807L267.313 258.466C267.38 258.315 267.48 258.176 267.607 258.059C267.734 257.942 267.885 257.849 268.052 257.784C268.22 257.719 268.4 257.685 268.582 257.683C268.764 257.68 268.945 257.71 269.114 257.771C269.283 257.831 269.437 257.921 269.568 258.035C269.698 258.149 269.802 258.285 269.874 258.435C269.946 258.585 269.984 258.746 269.986 258.909C269.988 259.072 269.955 259.234 269.887 259.386L231.922 344.726C231.786 345.031 231.52 345.276 231.182 345.406C230.845 345.536 230.464 345.541 230.123 345.419Z"
      fill="#E6E6E6" />
    <path
      d="M309.365 28.801C316.128 28.801 321.61 23.889 321.61 17.8297C321.61 11.7705 316.128 6.85852 309.365 6.85852C302.603 6.85852 297.121 11.7705 297.121 17.8297C297.121 23.889 302.603 28.801 309.365 28.801Z"
      fill="white" />
    <path
      d="M315.394 17.3959H309.886V12.4609C309.887 12.3994 309.873 12.3385 309.847 12.2816C309.821 12.2248 309.783 12.1731 309.734 12.1296C309.686 12.086 309.629 12.0515 309.565 12.0279C309.502 12.0043 309.434 11.9922 309.365 11.9922C309.297 11.9922 309.229 12.0043 309.165 12.0279C309.102 12.0515 309.045 12.086 308.996 12.1296C308.948 12.1731 308.909 12.2248 308.883 12.2816C308.857 12.3385 308.844 12.3994 308.844 12.4609V17.3959H303.336C303.198 17.3959 303.065 17.4451 302.968 17.5327C302.87 17.6202 302.815 17.739 302.815 17.8628C302.815 17.9866 302.87 18.1054 302.968 18.1929C303.065 18.2805 303.198 18.3297 303.336 18.3297H308.844V23.2648C308.844 23.3263 308.857 23.3872 308.883 23.4441C308.909 23.5009 308.948 23.5526 308.996 23.5961C309.045 23.6397 309.102 23.6742 309.165 23.6978C309.229 23.7214 309.297 23.7335 309.365 23.7335C309.434 23.7335 309.502 23.7214 309.565 23.6978C309.629 23.6742 309.686 23.6397 309.734 23.5961C309.783 23.5526 309.821 23.5009 309.847 23.4441C309.873 23.3872 309.887 23.3263 309.886 23.2648V18.3297H315.394C315.533 18.3297 315.665 18.2805 315.763 18.1929C315.861 18.1054 315.915 17.9866 315.915 17.8628C315.915 17.739 315.861 17.6202 315.763 17.5327C315.665 17.4451 315.533 17.3959 315.394 17.3959Z"
      fill="#E6E6E6" />
    <path
      d="M460.258 26.8695H418.945C416.258 26.8695 413.68 25.9129 411.78 24.2102C409.88 22.5075 408.812 20.1981 408.812 17.7901C408.812 15.3822 409.88 13.0728 411.78 11.3701C413.68 9.66739 416.258 8.71082 418.945 8.71082H460.258C462.946 8.71082 465.523 9.66739 467.424 11.3701C469.324 13.0728 470.392 15.3822 470.392 17.7901C470.392 20.1981 469.324 22.5075 467.424 24.2102C465.523 25.9129 462.946 26.8695 460.258 26.8695Z"
      fill="#5A7BE6" />
    <path d="M319.099 14.0513L319.076 15.4481L398.911 16.4814L398.934 15.0846L319.099 14.0513Z" fill="#3F3D56" />
    <path
      d="M315.748 18.5388C314.789 18.5408 313.862 18.2263 313.145 17.6554C312.428 17.0844 311.971 16.2969 311.861 15.4432C311.75 14.5894 311.994 13.7291 312.547 13.0264C313.099 12.3237 313.921 11.8278 314.855 11.6332C315.789 11.4386 316.771 11.559 317.613 11.9715C318.454 12.3839 319.097 13.0595 319.418 13.8694C319.739 14.6793 319.716 15.5667 319.354 16.3625C318.991 17.1582 318.315 17.8066 317.453 18.1838C316.922 18.4163 316.339 18.5377 315.748 18.5388ZM315.743 12.9484C315.235 12.9484 314.74 13.0966 314.334 13.3706C313.928 13.6446 313.633 14.0295 313.493 14.4671C313.353 14.9048 313.376 15.3714 313.558 15.7964C313.74 16.2215 314.071 16.582 314.502 16.8233C314.933 17.0647 315.44 17.1738 315.946 17.1342C316.452 17.0946 316.93 16.9085 317.308 16.6039C317.686 16.2993 317.943 15.8929 318.04 15.4459C318.137 14.999 318.069 14.5359 317.846 14.1267V14.1264C317.654 13.7734 317.354 13.4759 316.983 13.2677C316.611 13.0595 316.181 12.9489 315.743 12.9485V12.9484Z"
      fill="#3F3D56" />
    <path
      d="M76.5724 38.7425C76.5753 36.3354 77.6439 34.0276 79.5436 32.3254C81.4434 30.6233 84.0191 29.6659 86.7057 29.6632H128.019C130.706 29.6632 133.284 30.6198 135.184 32.3225C137.085 34.0252 138.152 36.3345 138.152 38.7425C138.152 41.1505 137.085 43.4599 135.184 45.1626C133.284 46.8653 130.706 47.8219 128.019 47.8219H86.7057C84.0191 47.8192 81.4434 46.8618 79.5436 45.1596C77.6439 43.4575 76.5753 41.1497 76.5724 38.7425Z"
      fill="#5A7BE6" />
    <path d="M227.866 35.0057L148.031 36.0387L148.053 37.4355L227.888 36.4025L227.866 35.0057Z" fill="#3F3D56" />
    <path
      d="M229.511 39.136C228.658 38.7607 227.988 38.1172 227.63 37.3281C227.272 36.5391 227.251 35.6596 227.57 34.8573C227.889 34.055 228.527 33.386 229.361 32.9776C230.195 32.5692 231.168 32.4501 232.094 32.6429C233.02 32.8357 233.834 33.327 234.382 34.0232C234.929 34.7193 235.172 35.5717 235.064 36.4178C234.955 37.264 234.503 38.0448 233.793 38.6116C233.084 39.1783 232.166 39.4914 231.216 39.491C230.625 39.4908 230.042 39.3694 229.511 39.136ZM230.458 34.0159C230.167 34.1049 229.899 34.2446 229.669 34.427C229.439 34.6094 229.251 34.8308 229.117 35.0786V35.0789C228.879 35.5156 228.818 36.0128 228.943 36.4857C229.068 36.9586 229.373 37.3779 229.804 37.6721C230.236 37.9664 230.768 38.1174 231.31 38.0993C231.853 38.0812 232.371 37.8953 232.777 37.5731C233.183 37.251 233.452 36.8125 233.538 36.3326C233.623 35.8527 233.521 35.361 233.247 34.9413C232.974 34.5217 232.546 34.2001 232.037 34.0313C231.528 33.8626 230.97 33.8571 230.458 34.0159V34.0159Z"
      fill="#3F3D56" />
    <path
      d="M73.4544 313.218C73.4574 310.81 74.526 308.503 76.4257 306.8C78.3254 305.098 80.9012 304.141 83.5878 304.138H124.901C127.588 304.138 130.166 305.095 132.066 306.797C133.967 308.5 135.034 310.81 135.034 313.218C135.034 315.625 133.967 317.935 132.066 319.638C130.166 321.34 127.588 322.297 124.901 322.297H83.5878C80.9012 322.294 78.3254 321.337 76.4257 319.635C74.526 317.932 73.4574 315.625 73.4544 313.218Z"
      fill="#5A7BE6" />
    <path d="M224.746 309.482L144.911 310.515L144.934 311.912L224.769 310.879L224.746 309.482Z" fill="#3F3D56" />
    <path
      d="M226.393 313.611C225.54 313.236 224.87 312.592 224.512 311.803C224.154 311.014 224.133 310.135 224.452 309.332C224.771 308.53 225.409 307.861 226.243 307.453C227.077 307.044 228.05 306.925 228.976 307.118C229.902 307.311 230.716 307.802 231.264 308.498C231.811 309.194 232.054 310.047 231.946 310.893C231.837 311.739 231.385 312.52 230.675 313.087C229.966 313.653 229.048 313.966 228.098 313.966C227.507 313.966 226.924 313.844 226.393 313.611ZM227.34 308.491C227.049 308.58 226.781 308.72 226.551 308.902C226.321 309.084 226.133 309.306 225.999 309.554V309.554C225.761 309.991 225.7 310.488 225.825 310.961C225.95 311.434 226.255 311.853 226.686 312.147C227.118 312.441 227.65 312.592 228.193 312.574C228.735 312.556 229.253 312.37 229.659 312.048C230.065 311.726 230.334 311.288 230.42 310.808C230.506 310.328 230.403 309.836 230.129 309.416C229.856 308.997 229.428 308.675 228.919 308.506C228.411 308.338 227.852 308.332 227.34 308.491V308.491Z"
      fill="#3F3D56" />
    <path
      d="M84.3673 140.012C84.3703 137.605 85.4388 135.297 87.3386 133.595C89.2383 131.893 91.814 130.935 94.5007 130.933H135.814C138.501 130.933 141.079 131.889 142.979 133.592C144.879 135.295 145.947 137.604 145.947 140.012C145.947 142.42 144.879 144.729 142.979 146.432C141.079 148.135 138.501 149.091 135.814 149.091H94.5007C91.814 149.089 89.2383 148.131 87.3386 146.429C85.4388 144.727 84.3703 142.419 84.3673 140.012Z"
      fill="#5A7BE6" />
    <path d="M235.66 136.276L155.825 137.309L155.848 138.705L235.683 137.672L235.66 136.276Z" fill="#3F3D56" />
    <path
      d="M237.306 140.405C236.453 140.03 235.783 139.387 235.425 138.598C235.067 137.809 235.046 136.929 235.365 136.127C235.684 135.324 236.322 134.655 237.156 134.247C237.99 133.839 238.963 133.72 239.889 133.912C240.815 134.105 241.629 134.596 242.177 135.293C242.724 135.989 242.967 136.841 242.859 137.687C242.75 138.533 242.298 139.314 241.588 139.881C240.879 140.448 239.961 140.761 239.011 140.76C238.42 140.76 237.836 140.639 237.306 140.405ZM238.252 135.285C237.962 135.374 237.694 135.514 237.464 135.696C237.234 135.879 237.046 136.1 236.912 136.348V136.348C236.674 136.785 236.613 137.282 236.738 137.755C236.863 138.228 237.168 138.647 237.599 138.942C238.031 139.236 238.563 139.387 239.105 139.369C239.648 139.351 240.166 139.165 240.572 138.843C240.978 138.52 241.247 138.082 241.333 137.602C241.418 137.122 241.316 136.63 241.042 136.211C240.768 135.791 240.341 135.469 239.832 135.301C239.323 135.132 238.765 135.127 238.252 135.285V135.285Z"
      fill="#3F3D56" />
    <path
      d="M449.345 84.8375H408.032C405.345 84.8375 402.767 83.8809 400.867 82.1782C398.967 80.4755 397.899 78.1661 397.899 75.7582C397.899 73.3502 398.967 71.0408 400.867 69.3381C402.767 67.6354 405.345 66.6788 408.032 66.6788H449.345C452.033 66.6788 454.61 67.6354 456.511 69.3381C458.411 71.0408 459.479 73.3502 459.479 75.7582C459.479 78.1661 458.411 80.4755 456.511 82.1782C454.61 83.8809 452.033 84.8375 449.345 84.8375Z"
      fill="#5A7BE6" />
    <path d="M308.186 72.0193L308.164 73.4161L387.999 74.4494L388.021 73.0526L308.186 72.0193Z" fill="#3F3D56" />
    <path
      d="M304.835 76.5068C303.876 76.5088 302.949 76.1943 302.232 75.6234C301.515 75.0524 301.058 74.2649 300.948 73.4112C300.837 72.5574 301.081 71.6971 301.634 70.9944C302.186 70.2917 303.008 69.7958 303.942 69.6012C304.877 69.4066 305.858 69.5271 306.7 69.9395C307.541 70.3519 308.184 71.0275 308.505 71.8374C308.826 72.6473 308.803 73.5347 308.441 74.3305C308.078 75.1262 307.402 75.7745 306.54 76.1518C306.009 76.3843 305.426 76.5057 304.835 76.5068ZM304.83 70.9165C304.322 70.9164 303.827 71.0646 303.421 71.3386C303.015 71.6126 302.72 71.9975 302.58 72.4351C302.44 72.8728 302.463 73.3394 302.645 73.7645C302.827 74.1895 303.158 74.55 303.589 74.7913C304.02 75.0327 304.527 75.1418 305.033 75.1022C305.539 75.0626 306.017 74.8764 306.395 74.5719C306.773 74.2673 307.03 73.8608 307.127 73.4139C307.224 72.967 307.156 72.504 306.933 72.0947V72.0944C306.741 71.7414 306.442 71.4439 306.07 71.2357C305.698 71.0275 305.268 70.9169 304.83 70.9165V70.9165Z"
      fill="#3F3D56" />
    <path
      d="M471.439 188.255L459.44 188.732C456.736 195.32 458.651 211.315 458.651 211.315L452.348 237.599C451.687 238.188 451.212 238.922 450.969 239.728C450.727 240.534 450.725 241.383 450.965 242.189C451.205 242.996 451.678 243.731 452.336 244.322C452.994 244.913 453.814 245.338 454.713 245.555C455.613 245.771 456.561 245.771 457.461 245.556C458.36 245.34 459.181 244.915 459.839 244.325C460.498 243.735 460.971 242.999 461.212 242.193C461.453 241.387 461.452 240.538 461.21 239.732L474.012 208.214L471.439 188.255Z"
      fill="#9E616A" />
    <path
      d="M463.457 159.508C465.318 159.453 467.17 159.766 468.881 160.426C470.591 161.085 472.119 162.074 473.355 163.322C474.59 164.57 475.504 166.047 476.03 167.648C476.556 169.248 476.682 170.933 476.399 172.582L475.246 179.298C475.246 179.298 478.543 202.16 474.524 208.382L466.857 226.982L454.35 226.409L457.808 206.097C457.808 206.097 458.68 196.044 455.488 191.791C453.533 189.187 451.546 179.385 451.207 171.196C451.153 169.707 451.427 168.224 452.014 166.83C452.6 165.437 453.488 164.161 454.626 163.075C455.764 161.99 457.13 161.116 458.645 160.504C460.16 159.891 461.795 159.553 463.457 159.508Z"
      fill="#3F3D56" />
    <path d="M454.786 359.397L446.995 359.396L443.288 332.468H454.788L454.786 359.397Z" fill="#9E616A" />
    <path
      d="M455.061 366.679L431.1 366.679V366.407C431.1 364.191 432.083 362.066 433.832 360.499C435.581 358.932 437.953 358.051 440.426 358.051H440.427L444.803 355.076L452.969 358.051L455.061 358.052L455.061 366.679Z"
      fill="#2F2E41" />
    <path d="M426.633 359.397L418.842 359.396L415.134 332.468H426.635L426.633 359.397Z" fill="#9E616A" />
    <path
      d="M426.908 366.679L402.947 366.679V366.407C402.947 364.191 403.93 362.066 405.679 360.499C407.428 358.932 409.8 358.051 412.273 358.051H412.274L416.65 355.076L424.816 358.051L426.908 358.052L426.908 366.679Z"
      fill="#2F2E41" />
    <path
      d="M398.34 286.014C402.968 299.222 404.744 309.584 408.271 322.662C409.663 324.958 415.658 344.036 415.658 344.036C415.658 344.036 424.643 344.919 427.821 342.666C430.999 340.413 427.724 329.263 427.724 329.263C429.819 320.833 424.656 307.551 424.35 299.379C424.985 295.949 421.616 293.004 421.307 289.733C423.535 288.214 434.37 264.383 436.58 257.724C435.444 278.015 445.407 324.345 440.158 339.736C437.108 348.678 444.197 346.69 454.694 347.123C459.375 345.877 457.471 338.699 457.471 338.699C457.471 338.699 460.649 333.958 460.649 332.119C462.924 323.516 465.659 304.802 464.912 300.597C465.254 296.133 465.423 251.536 469.229 235.915C471.765 223.472 440.685 220.733 431.747 217.766C416.832 211.327 419.349 220.481 411.495 228.913C403.921 243.448 399.46 269.403 398.34 286.014Z"
      fill="#2F2E41" />
    <path
      d="M433.157 155.204L442.218 146.063L456.535 147.488L465.701 158.982C475.832 161.071 477.7 168.492 475.921 177.669C472.364 196.021 463.583 208.849 467.575 217.904C473.634 231.649 470.696 242.226 456.192 240.299C441.689 238.372 408.267 225.646 417.688 217.205C427.108 208.765 418.686 204.34 418.686 204.34L425.299 172.071C423.605 163.841 423.867 156.066 433.157 155.204V155.204Z"
      fill="#3F3D56" />
    <path
      d="M434.321 184.174L422.902 180.836C417.783 186.151 413.294 201.726 413.294 201.726L397.07 224.341C396.22 224.684 395.487 225.221 394.943 225.899C394.399 226.577 394.065 227.371 393.972 228.201C393.88 229.032 394.034 229.87 394.417 230.63C394.801 231.391 395.402 232.047 396.159 232.534C396.916 233.02 397.803 233.319 398.73 233.401C399.657 233.482 400.592 233.344 401.44 232.999C402.289 232.654 403.021 232.115 403.562 231.436C404.104 230.757 404.437 229.962 404.527 229.131L428.89 203.667L434.321 184.174Z"
      fill="#9E616A" />
    <path
      d="M438.141 154.749C439.904 155.284 441.515 156.161 442.857 157.318C444.2 158.474 445.241 159.881 445.907 161.44C446.574 162.998 446.849 164.668 446.712 166.332C446.576 167.996 446.033 169.613 445.12 171.067L441.403 176.99C441.403 176.99 435.509 199.429 429.303 203.986L414.821 218.979L403.338 214.498L414.554 196.576C414.554 196.576 419.319 187.441 418.002 182.454C417.195 179.399 419.185 169.598 422.084 161.826C422.618 160.415 423.457 159.113 424.554 157.994C425.65 156.875 426.982 155.96 428.474 155.303C429.965 154.646 431.587 154.258 433.246 154.163C434.904 154.068 436.568 154.267 438.141 154.749Z"
      fill="#3F3D56" />
    <path
      d="M452.853 144.114C461.026 144.114 467.653 138.178 467.653 130.854C467.653 123.531 461.026 117.594 452.853 117.594C444.679 117.594 438.053 123.531 438.053 130.854C438.053 138.178 444.679 144.114 452.853 144.114Z"
      fill="#A0616A" />
    <path
      d="M439.968 118.922C440.189 117.821 440.684 116.778 441.416 115.871C441.785 115.478 442.242 115.16 442.758 114.936C443.274 114.712 443.836 114.589 444.409 114.573C444.982 114.558 445.551 114.65 446.081 114.846C446.611 115.041 447.089 115.334 447.484 115.706C447.253 115.103 447.185 114.46 447.288 113.829C448.368 114.293 449.525 114.602 450.713 114.742L448.087 112.285C453.482 110.137 457.941 110.253 461.16 113.361C462.082 114.251 463.968 113.629 464.959 114.548C465.95 115.466 466.005 117.426 464.752 117.938C467.22 117.106 470.054 118.314 471.682 120.339C473.31 122.364 473.909 125.035 474.019 127.626C474.162 130.986 473.463 134.563 471.174 137.037C469.677 138.654 467.636 139.663 465.98 141.118L465.93 141.162C464.116 142.829 461.842 144.037 459.338 144.661C456.835 145.286 454.191 145.306 451.677 144.72C451.394 144.65 451.114 144.573 450.832 144.501C449.423 145.072 447.668 144.291 446.779 143.022C445.831 141.668 445.644 139.936 445.603 138.287C445.551 136.129 445.699 133.971 446.047 131.836C446.439 129.431 446.792 126.352 444.667 125.144C443.012 124.203 440.956 125.131 439.29 126.052C439.13 123.659 439.358 121.257 439.968 118.922Z"
      fill="#2F2E41" />
    <path
      d="M585.072 367.785L1.42782 368C1.18213 367.999 0.946757 367.911 0.77328 367.756C0.599803 367.6 0.50238 367.389 0.50238 367.168C0.50238 366.948 0.599803 366.737 0.77328 366.581C0.946757 366.425 1.18213 366.337 1.42782 366.337L585.072 366.122C585.318 366.122 585.554 366.21 585.728 366.366C585.902 366.522 586 366.733 586 366.954C586 367.174 585.902 367.386 585.728 367.542C585.554 367.698 585.318 367.785 585.072 367.785Z"
      fill="#CACACA" />
  </g>
  <defs>
    <clipPath id="clip0_56_265">
      <rect width="585.5" height="368" fill="white" transform="translate(0.5)" />
    </clipPath>
  </defs>
</svg>