<svg id="e8aVD3HMJ5o1" xmlns="http://www.w3.org/2000/svg" xmlns:xlink="http://www.w3.org/1999/xlink" viewBox="0 0 647 514" shape-rendering="geometricPrecision" text-rendering="geometricPrecision"><style><![CDATA[#e8aVD3HMJ5o129 {animation: e8aVD3HMJ5o129_c_o 10000ms linear infinite normal forwards}@keyframes e8aVD3HMJ5o129_c_o { 0% {opacity: 0;animation-timing-function: cubic-bezier(0.895,0,0,1)} 10% {opacity: 1;animation-timing-function: cubic-bezier(0.895,0,0,1)} 20% {opacity: 0} 100% {opacity: 0}} #e8aVD3HMJ5o134 {animation: e8aVD3HMJ5o134_c_o 10000ms linear infinite normal forwards}@keyframes e8aVD3HMJ5o134_c_o { 0% {opacity: 0} 20% {opacity: 0;animation-timing-function: cubic-bezier(0.895,0,0,1)} 30% {opacity: 1;animation-timing-function: cubic-bezier(0.895,0,0,1)} 40% {opacity: 0} 100% {opacity: 0}} #e8aVD3HMJ5o139 {animation: e8aVD3HMJ5o139_c_o 10000ms linear infinite normal forwards}@keyframes e8aVD3HMJ5o139_c_o { 0% {opacity: 0} 40% {opacity: 0;animation-timing-function: cubic-bezier(0.895,0,0,1)} 50% {opacity: 1;animation-timing-function: cubic-bezier(0.895,0,0,1)} 60% {opacity: 0} 100% {opacity: 0}} #e8aVD3HMJ5o144 {animation: e8aVD3HMJ5o144_c_o 10000ms linear infinite normal forwards}@keyframes e8aVD3HMJ5o144_c_o { 0% {opacity: 0} 60% {opacity: 0;animation-timing-function: cubic-bezier(0.895,0,0,1)} 70% {opacity: 1;animation-timing-function: cubic-bezier(0.895,0,0,1)} 80% {opacity: 0} 100% {opacity: 0}} #e8aVD3HMJ5o149 {animation: e8aVD3HMJ5o149_c_o 10000ms linear infinite normal forwards}@keyframes e8aVD3HMJ5o149_c_o { 0% {opacity: 0} 80% {opacity: 0;animation-timing-function: cubic-bezier(0.895,0,0,1)} 90% {opacity: 1;animation-timing-function: cubic-bezier(0.895,0,0,1)} 100% {opacity: 0}} #e8aVD3HMJ5o191_to {animation: e8aVD3HMJ5o191_to__to 10000ms linear infinite normal forwards}@keyframes e8aVD3HMJ5o191_to__to { 0% {transform: translate(354.834046px,430.836746px)} 60% {transform: translate(354.834046px,430.836746px);animation-timing-function: cubic-bezier(1,-0.5,0,1.5)} 80% {transform: translate(354.834046px,419.836097px);animation-timing-function: cubic-bezier(1,-0.5,0,1.5)} 100% {transform: translate(354.834046px,430.836097px)}} #e8aVD3HMJ5o207_to {animation: e8aVD3HMJ5o207_to__to 10000ms linear infinite normal forwards}@keyframes e8aVD3HMJ5o207_to__to { 0% {transform: translate(557.172714px,290.114296px)} 30% {transform: translate(557.172714px,290.114296px);animation-timing-function: cubic-bezier(1,-0.5,0,1.5)} 50% {transform: translate(557.172714px,279.118053px);animation-timing-function: cubic-bezier(1,-0.5,0,1.5)} 70% {transform: translate(557.172714px,290.114296px)} 100% {transform: translate(557.172714px,290.114296px)}} #e8aVD3HMJ5o223_to {animation: e8aVD3HMJ5o223_to__to 10000ms linear infinite normal forwards}@keyframes e8aVD3HMJ5o223_to__to { 0% {transform: translate(152.526192px,301.391625px);animation-timing-function: cubic-bezier(1,-0.5,0,1.5)} 20% {transform: translate(152.526192px,290.395381px);animation-timing-function: cubic-bezier(1,-0.5,0,1.5)} 40% {transform: translate(152.526192px,301.39px)} 100% {transform: translate(152.526192px,301.39px)}}]]></style><defs><linearGradient id="e8aVD3HMJ5o83-fill" x1="190.785" y1="429.05" x2="148.06" y2="429.05" spreadMethod="pad" gradientUnits="userSpaceOnUse" gradientTransform="translate(0 0)"><stop id="e8aVD3HMJ5o83-fill-0" offset="0%" stop-color="#008eff"/><stop id="e8aVD3HMJ5o83-fill-1" offset="75.3096%" stop-color="#8cf"/><stop id="e8aVD3HMJ5o83-fill-2" offset="100%" stop-color="#bee0ff"/></linearGradient><linearGradient id="e8aVD3HMJ5o84-fill" x1="220.625" y1="397.571" x2="111.349" y2="397.571" spreadMethod="pad" gradientUnits="userSpaceOnUse" gradientTransform="translate(0 0)"><stop id="e8aVD3HMJ5o84-fill-0" offset="0%" stop-color="#008eff"/><stop id="e8aVD3HMJ5o84-fill-1" offset="32.0247%" stop-color="#8cf"/><stop id="e8aVD3HMJ5o84-fill-2" offset="100%" stop-color="#bee0ff"/></linearGradient><linearGradient id="e8aVD3HMJ5o85-fill" x1="154.641" y1="429.05" x2="111.916" y2="429.05" spreadMethod="pad" gradientUnits="userSpaceOnUse" gradientTransform="translate(0 0)"><stop id="e8aVD3HMJ5o85-fill-0" offset="0%" stop-color="#008eff"/><stop id="e8aVD3HMJ5o85-fill-1" offset="75.3096%" stop-color="#8cf"/><stop id="e8aVD3HMJ5o85-fill-2" offset="100%" stop-color="#bee0ff"/></linearGradient><linearGradient id="e8aVD3HMJ5o89-fill" x1="595.403" y1="204.1" x2="552.678" y2="204.1" spreadMethod="pad" gradientUnits="userSpaceOnUse" gradientTransform="translate(0 0)"><stop id="e8aVD3HMJ5o89-fill-0" offset="0%" stop-color="#008eff"/><stop id="e8aVD3HMJ5o89-fill-1" offset="75.3096%" stop-color="#8cf"/><stop id="e8aVD3HMJ5o89-fill-2" offset="100%" stop-color="#bee0ff"/></linearGradient><linearGradient id="e8aVD3HMJ5o90-fill" x1="625.243" y1="172.622" x2="515.967" y2="172.622" spreadMethod="pad" gradientUnits="userSpaceOnUse" gradientTransform="translate(0 0)"><stop id="e8aVD3HMJ5o90-fill-0" offset="0%" stop-color="#008eff"/><stop id="e8aVD3HMJ5o90-fill-1" offset="32.0247%" stop-color="#8cf"/><stop id="e8aVD3HMJ5o90-fill-2" offset="100%" stop-color="#bee0ff"/></linearGradient><linearGradient id="e8aVD3HMJ5o91-fill" x1="559.258" y1="204.1" x2="516.534" y2="204.1" spreadMethod="pad" gradientUnits="userSpaceOnUse" gradientTransform="translate(0 0)"><stop id="e8aVD3HMJ5o91-fill-0" offset="0%" stop-color="#008eff"/><stop id="e8aVD3HMJ5o91-fill-1" offset="75.3096%" stop-color="#8cf"/><stop id="e8aVD3HMJ5o91-fill-2" offset="100%" stop-color="#bee0ff"/></linearGradient><linearGradient id="e8aVD3HMJ5o96-fill" x1="595.403" y1="429.05" x2="552.678" y2="429.05" spreadMethod="pad" gradientUnits="userSpaceOnUse" gradientTransform="translate(0 0)"><stop id="e8aVD3HMJ5o96-fill-0" offset="0%" stop-color="#008eff"/><stop id="e8aVD3HMJ5o96-fill-1" offset="75.3096%" stop-color="#8cf"/><stop id="e8aVD3HMJ5o96-fill-2" offset="100%" stop-color="#bee0ff"/></linearGradient><linearGradient id="e8aVD3HMJ5o97-fill" x1="625.241" y1="397.571" x2="515.967" y2="397.571" spreadMethod="pad" gradientUnits="userSpaceOnUse" gradientTransform="translate(0 0)"><stop id="e8aVD3HMJ5o97-fill-0" offset="0%" stop-color="#008eff"/><stop id="e8aVD3HMJ5o97-fill-1" offset="32.0247%" stop-color="#8cf"/><stop id="e8aVD3HMJ5o97-fill-2" offset="100%" stop-color="#bee0ff"/></linearGradient><linearGradient id="e8aVD3HMJ5o98-fill" x1="559.258" y1="429.05" x2="516.534" y2="429.05" spreadMethod="pad" gradientUnits="userSpaceOnUse" gradientTransform="translate(0 0)"><stop id="e8aVD3HMJ5o98-fill-0" offset="0%" stop-color="#008eff"/><stop id="e8aVD3HMJ5o98-fill-1" offset="75.3096%" stop-color="#8cf"/><stop id="e8aVD3HMJ5o98-fill-2" offset="100%" stop-color="#bee0ff"/></linearGradient><linearGradient id="e8aVD3HMJ5o102-fill" x1="190.785" y1="204.1" x2="148.06" y2="204.1" spreadMethod="pad" gradientUnits="userSpaceOnUse" gradientTransform="translate(0 0)"><stop id="e8aVD3HMJ5o102-fill-0" offset="0%" stop-color="#008eff"/><stop id="e8aVD3HMJ5o102-fill-1" offset="75.3096%" stop-color="#8cf"/><stop id="e8aVD3HMJ5o102-fill-2" offset="100%" stop-color="#bee0ff"/></linearGradient><linearGradient id="e8aVD3HMJ5o103-fill" x1="220.625" y1="172.622" x2="111.349" y2="172.622" spreadMethod="pad" gradientUnits="userSpaceOnUse" gradientTransform="translate(0 0)"><stop id="e8aVD3HMJ5o103-fill-0" offset="0%" stop-color="#008eff"/><stop id="e8aVD3HMJ5o103-fill-1" offset="32.0247%" stop-color="#8cf"/><stop id="e8aVD3HMJ5o103-fill-2" offset="100%" stop-color="#bee0ff"/></linearGradient><linearGradient id="e8aVD3HMJ5o104-fill" x1="154.641" y1="204.1" x2="111.916" y2="204.1" spreadMethod="pad" gradientUnits="userSpaceOnUse" gradientTransform="translate(0 0)"><stop id="e8aVD3HMJ5o104-fill-0" offset="0%" stop-color="#008eff"/><stop id="e8aVD3HMJ5o104-fill-1" offset="75.3096%" stop-color="#8cf"/><stop id="e8aVD3HMJ5o104-fill-2" offset="100%" stop-color="#bee0ff"/></linearGradient><linearGradient id="e8aVD3HMJ5o109-fill" x1="469.092" y1="220.626" x2="339.134" y2="220.626" spreadMethod="pad" gradientUnits="userSpaceOnUse" gradientTransform="translate(0 0)"><stop id="e8aVD3HMJ5o109-fill-0" offset="0%" stop-color="#008eff"/><stop id="e8aVD3HMJ5o109-fill-1" offset="75.3096%" stop-color="#8cf"/><stop id="e8aVD3HMJ5o109-fill-2" offset="100%" stop-color="#bee0ff"/></linearGradient><linearGradient id="e8aVD3HMJ5o110-fill" x1="554.269" y1="71.1677" x2="234.724" y2="71.1677" spreadMethod="pad" gradientUnits="userSpaceOnUse" gradientTransform="translate(0 0)"><stop id="e8aVD3HMJ5o110-fill-0" offset="0%" stop-color="#008eff"/><stop id="e8aVD3HMJ5o110-fill-1" offset="32.0247%" stop-color="#8cf"/><stop id="e8aVD3HMJ5o110-fill-2" offset="100%" stop-color="#bee0ff"/></linearGradient><linearGradient id="e8aVD3HMJ5o192-fill" x1="425.857" y1="443.932" x2="275.416" y2="443.932" spreadMethod="pad" gradientUnits="userSpaceOnUse" gradientTransform="translate(0 0)"><stop id="e8aVD3HMJ5o192-fill-0" offset="0%" stop-color="#008eff"/><stop id="e8aVD3HMJ5o192-fill-1" offset="75.3096%" stop-color="#8cf"/><stop id="e8aVD3HMJ5o192-fill-2" offset="100%" stop-color="#bee0ff"/></linearGradient><linearGradient id="e8aVD3HMJ5o193-fill" x1="358.531" y1="443.925" x2="283.311" y2="443.925" spreadMethod="pad" gradientUnits="userSpaceOnUse" gradientTransform="translate(0 0)"><stop id="e8aVD3HMJ5o193-fill-0" offset="0%" stop-color="#008eff"/><stop id="e8aVD3HMJ5o193-fill-1" offset="75.3096%" stop-color="#8cf"/><stop id="e8aVD3HMJ5o193-fill-2" offset="100%" stop-color="#bee0ff"/></linearGradient><linearGradient id="e8aVD3HMJ5o195-fill" x1="360.735" y1="465.704" x2="348.241" y2="465.704" spreadMethod="pad" gradientUnits="userSpaceOnUse" gradientTransform="translate(0 0)"><stop id="e8aVD3HMJ5o195-fill-0" offset="0%" stop-color="#008eff"/><stop id="e8aVD3HMJ5o195-fill-1" offset="75.3096%" stop-color="#8cf"/><stop id="e8aVD3HMJ5o195-fill-2" offset="100%" stop-color="#bee0ff"/></linearGradient><linearGradient id="e8aVD3HMJ5o196-fill" x1="474.729" y1="420.88" x2="282.31" y2="420.88" spreadMethod="pad" gradientUnits="userSpaceOnUse" gradientTransform="translate(0 0)"><stop id="e8aVD3HMJ5o196-fill-0" offset="0%" stop-color="#008eff"/><stop id="e8aVD3HMJ5o196-fill-1" offset="32.0247%" stop-color="#8cf"/><stop id="e8aVD3HMJ5o196-fill-2" offset="100%" stop-color="#bee0ff"/></linearGradient><linearGradient id="e8aVD3HMJ5o201-fill" x1="348.087" y1="434.138" x2="329.652" y2="388.661" spreadMethod="pad" gradientUnits="userSpaceOnUse" gradientTransform="translate(0 0)"><stop id="e8aVD3HMJ5o201-fill-0" offset="0%" stop-color="#418cff"/><stop id="e8aVD3HMJ5o201-fill-1" offset="100%" stop-color="#0646bd"/></linearGradient><linearGradient id="e8aVD3HMJ5o208-fill" x1="628.196" y1="303.338" x2="477.754" y2="303.338" spreadMethod="pad" gradientUnits="userSpaceOnUse" gradientTransform="translate(0 0)"><stop id="e8aVD3HMJ5o208-fill-0" offset="0%" stop-color="#008eff"/><stop id="e8aVD3HMJ5o208-fill-1" offset="75.3096%" stop-color="#8cf"/><stop id="e8aVD3HMJ5o208-fill-2" offset="100%" stop-color="#bee0ff"/></linearGradient><linearGradient id="e8aVD3HMJ5o209-fill" x1="560.87" y1="303.331" x2="485.649" y2="303.331" spreadMethod="pad" gradientUnits="userSpaceOnUse" gradientTransform="translate(0 0)"><stop id="e8aVD3HMJ5o209-fill-0" offset="0%" stop-color="#008eff"/><stop id="e8aVD3HMJ5o209-fill-1" offset="75.3096%" stop-color="#8cf"/><stop id="e8aVD3HMJ5o209-fill-2" offset="100%" stop-color="#bee0ff"/></linearGradient><linearGradient id="e8aVD3HMJ5o211-fill" x1="563.072" y1="324.641" x2="550.58" y2="324.641" spreadMethod="pad" gradientUnits="userSpaceOnUse" gradientTransform="translate(0 0)"><stop id="e8aVD3HMJ5o211-fill-0" offset="0%" stop-color="#008eff"/><stop id="e8aVD3HMJ5o211-fill-1" offset="75.3096%" stop-color="#8cf"/><stop id="e8aVD3HMJ5o211-fill-2" offset="100%" stop-color="#bee0ff"/></linearGradient><linearGradient id="e8aVD3HMJ5o212-fill" x1="677.067" y1="280.286" x2="484.649" y2="280.286" spreadMethod="pad" gradientUnits="userSpaceOnUse" gradientTransform="translate(0 0)"><stop id="e8aVD3HMJ5o212-fill-0" offset="0%" stop-color="#008eff"/><stop id="e8aVD3HMJ5o212-fill-1" offset="32.0247%" stop-color="#8cf"/><stop id="e8aVD3HMJ5o212-fill-2" offset="100%" stop-color="#bee0ff"/></linearGradient><linearGradient id="e8aVD3HMJ5o217-fill" x1="550.366" y1="293.075" x2="531.931" y2="247.598" spreadMethod="pad" gradientUnits="userSpaceOnUse" gradientTransform="translate(0 0)"><stop id="e8aVD3HMJ5o217-fill-0" offset="0%" stop-color="#418cff"/><stop id="e8aVD3HMJ5o217-fill-1" offset="100%" stop-color="#0646bd"/></linearGradient><linearGradient id="e8aVD3HMJ5o219-fill" x1="550.363" y1="279.062" x2="544.189" y2="251.345" spreadMethod="pad" gradientUnits="userSpaceOnUse" gradientTransform="translate(0 0)"><stop id="e8aVD3HMJ5o219-fill-0" offset="0%" stop-color="#418cff"/><stop id="e8aVD3HMJ5o219-fill-1" offset="100%" stop-color="#0646bd"/></linearGradient><linearGradient id="e8aVD3HMJ5o224-fill" x1="223.579" y1="303.338" x2="73.1359" y2="303.338" spreadMethod="pad" gradientUnits="userSpaceOnUse" gradientTransform="translate(0 0)"><stop id="e8aVD3HMJ5o224-fill-0" offset="0%" stop-color="#008eff"/><stop id="e8aVD3HMJ5o224-fill-1" offset="75.3096%" stop-color="#8cf"/><stop id="e8aVD3HMJ5o224-fill-2" offset="100%" stop-color="#bee0ff"/></linearGradient><linearGradient id="e8aVD3HMJ5o225-fill" x1="156.253" y1="303.331" x2="81.0307" y2="303.331" spreadMethod="pad" gradientUnits="userSpaceOnUse" gradientTransform="translate(0 0)"><stop id="e8aVD3HMJ5o225-fill-0" offset="0%" stop-color="#008eff"/><stop id="e8aVD3HMJ5o225-fill-1" offset="75.3096%" stop-color="#8cf"/><stop id="e8aVD3HMJ5o225-fill-2" offset="100%" stop-color="#bee0ff"/></linearGradient><linearGradient id="e8aVD3HMJ5o227-fill" x1="158.399" y1="324.641" x2="145.902" y2="324.641" spreadMethod="pad" gradientUnits="userSpaceOnUse" gradientTransform="translate(0 0)"><stop id="e8aVD3HMJ5o227-fill-0" offset="0%" stop-color="#008eff"/><stop id="e8aVD3HMJ5o227-fill-1" offset="75.3096%" stop-color="#8cf"/><stop id="e8aVD3HMJ5o227-fill-2" offset="100%" stop-color="#bee0ff"/></linearGradient><linearGradient id="e8aVD3HMJ5o228-fill" x1="272.45" y1="280.286" x2="80.0308" y2="280.286" spreadMethod="pad" gradientUnits="userSpaceOnUse" gradientTransform="translate(0 0)"><stop id="e8aVD3HMJ5o228-fill-0" offset="0%" stop-color="#008eff"/><stop id="e8aVD3HMJ5o228-fill-1" offset="32.0247%" stop-color="#8cf"/><stop id="e8aVD3HMJ5o228-fill-2" offset="100%" stop-color="#bee0ff"/></linearGradient><linearGradient id="e8aVD3HMJ5o231-fill" x1="145.749" y1="293.075" x2="127.314" y2="247.598" spreadMethod="pad" gradientUnits="userSpaceOnUse" gradientTransform="translate(0 0)"><stop id="e8aVD3HMJ5o231-fill-0" offset="0%" stop-color="#418cff"/><stop id="e8aVD3HMJ5o231-fill-1" offset="100%" stop-color="#0646bd"/></linearGradient></defs><path d="M597.952,141.12l-1.583-.915-.189-.109-31.198-18.012l31.198,18.012l46.502-26.847L596.18,86.4024L549.678,113.248l-1.771-1.024L596.18,84.3565l.441.2559l49.604,28.6366-48.273,27.871Zm-3.543,0l-15.304-8.836l15.304,8.836Z" opacity="0.3" fill="#d1ebfa"/><path d="M501.448,141.12l23.251-13.424L501.45,141.12h-.002Zm-3.543,0l-26.142-15.094l26.143,15.094h-.001Zm1.772-1.024l-23.251-13.424l23.251,13.424l28.199-16.281-28.199,16.281Zm46.5-26.847l-46.5-26.8466L462.73,107.734v-2.046l36.947-21.3315L547.95,112.226l-1.773,1.023Z" opacity="0.3" fill="#d1ebfa"/><path d="M549.68,168.772l32.116-18.542-32.113,18.542h-.003Zm-1.769-1.024l-46.504-26.847-1.641-.949-.13-.075l28.199-16.281l18.302-10.566l1.772-1.023l1.771,1.023l15.304,8.837l31.198,18.012-1.771,1.024-15.304-8.837-31.198-18.012-23.251,13.423-23.251,13.424l46.504,26.847l16.719-9.652-16.719,9.652Zm50.043-26.845l-1.329-.768-.255-.147l1.584.915Z" opacity="0.3" fill="#d1ebfa"/><path d="M597.954,196.887l-1.773-1.022-46.505-26.847-1.572-.908-.197-.115l16.72-9.653l29.78-17.193l1.771-1.024.189.109.254.147l1.33.768l48.274,27.871-48.271,27.867Zm-48.278-27.869l46.505,26.847l46.501-26.845-46.504-26.849-14.385,8.306-32.117,18.541Z" opacity="0.3" fill="#d1ebfa"/><path d="M418.738,95.2202h-.002l1.772-1.0222-1.77,1.0222Z" fill="#d1ebfa"/><path d="M462.73,163.276l13.696-7.907-13.696,7.907Zm0-2.046l6.976-4.026-6.976,4.026Zm38.718-20.307l-1.329-.768-.312-.181l1.641.949Zm-3.542,0l-26.143-15.095-9.033-5.214v-2.046l13.696,7.907l23.251,13.424-1.772,1.024" opacity="0.3" fill="#d1ebfa"/><path d="M501.45,196.889l20.358-11.753-20.357,11.755-.001-.002Zm-1.771-1.022L462.73,174.536l36.949,21.331l30.571-17.651-30.571,17.651Zm50.042-26.847l-1.33-.768-.243-.141l1.573.909Zm-3.542,0l-46.502-26.849-23.251,13.425-13.696,7.907v-2.046l6.976-4.027l28.199-16.281l1.772-1.024.13.076.312.18l1.329.768l46.503,26.847-1.772,1.022" opacity="0.3" fill="#d1ebfa"/><path d="M549.681,224.539l13.372-7.72-13.372,7.72Zm-1.772-1.022L501.407,196.67v-.002l-1.551-.895-.22-.127l30.571-17.65l15.93-9.198l1.772-1.022.197.115.243.141l1.329.767l46.504,26.847-1.771,1.022-46.502-26.847-26.143,15.095-20.359,11.752l46.504,26.849l23.249-13.424-23.249,13.424" opacity="0.3" fill="#d1ebfa"/><path d="M597.952,252.189l-1.492-.862-.28-.161-46.502-26.847-1.552-.896-.219-.127l23.25-13.424l23.25-13.424l1.773-1.022l1.772,1.022l48.273,27.872-48.273,27.869Zm-48.274-27.87l46.502,26.847l46.502-26.846-46.502-26.848-33.13,19.127-13.372,7.72Z" opacity="0.3" fill="#d1ebfa"/><path d="M370.467,123.339h-.002l1.773-1.022-1.771,1.022Z" fill="#d1ebfa"/><path d="M462.73,219.047l6.378-3.683-6.378,3.683Zm0-2.046v-.002l14.819-8.555-14.819,8.557Zm38.72-20.309l-1.33-.768-.222-.13l1.552.896v.002Zm-3.542-.002L462.73,176.383v-2.046l36.949,21.331-1.773,1.022" opacity="0.3" fill="#d1ebfa"/><path d="M501.451,252.189l23.251-13.422-23.249,13.422h-.002Zm-1.771-1.022v-.001l-36.95-21.332l36.95,21.332l26.143-15.093-26.143,15.094Zm50.044-26.848l-1.329-.767-.223-.129l1.552.896Zm-3.543,0l-46.502-26.847-30.571,17.65-6.378,3.683v-2.046l14.819-8.557l20.357-11.754l1.773-1.022.219.126.222.13l1.33.768l46.501,26.846-1.77,1.023Z" opacity="0.3" fill="#d1ebfa"/><path d="M549.681,280.308l28.199-16.281-28.199,16.281Zm-1.772-1.022l-46.502-26.849-1.492-.862-.279-.16l26.143-15.094l20.358-11.754l1.772-1.022.219.126.223.13l1.329.766l46.502,26.848-1.771,1.022-46.502-26.846-23.251,13.424-23.251,13.422l46.504,26.847l23.249-13.422-23.249,13.422-.002.002Zm50.045-26.849l-1.329-.766-.163-.096l1.492.862Z" opacity="0.3" fill="#d1ebfa"/><path d="M597.952,307.96l-1.543-.891-.229-.133-46.502-26.847-1.473-.851-.298-.173l23.25-13.422l23.25-13.424l1.771-1.024.28.161.163.096l1.33.767l48.274,27.87-48.273,27.871Zm-48.274-27.871l46.502,26.847l46.502-26.847-46.504-26.847-18.301,10.566-28.199,16.281Z" opacity="0.3" fill="#d1ebfa"/><path d="M211.787,141.118l29.781-17.193-29.781,17.193Zm-1.772-1.023l-46.502-26.847-1.611-.931-.16-.093l48.273-27.8675.441.2559L246.97,105.693v2.044L210.015,86.4024L163.513,113.248l46.503,26.847l14.386-8.306-14.386,8.306" opacity="0.3" fill="#d1ebfa"/><path d="M246.966,163.286l-5.755-3.324l5.755,3.322v.002Zm0-2.046l-19.879-11.479l19.879,11.477v.002Zm-35.182-20.314l-1.771-1.024l14.385-8.305l22.568-13.029v2.046l-5.402,3.119-29.78,17.193Z" opacity="0.3" fill="#d1ebfa"/><path d="M462.73,274.816l20.231-11.679-20.231,11.679Zm0-2.046l9.316-5.378-9.316,5.378Zm38.721-20.309l-1.329-.767-.163-.095l1.492.862Zm-3.541,0l-35.18-20.309v-2.046l36.95,21.333-1.772,1.022" opacity="0.3" fill="#d1ebfa"/><path d="M501.453,307.96l25.898-14.952-25.897,14.952h-.001Zm-3.543,0l-23.251-13.424l23.252,13.424h-.001Zm1.772-1.024L484.378,298.1l15.304,8.836l15.929-9.196-15.929,9.196Zm50.043-26.847l-1.329-.768-.144-.083l1.473.851Zm-3.543,0L499.68,253.242l-16.719,9.653-20.231,11.679v-2.046l9.316-5.378l25.862-14.931l1.772-1.024v.001l.279.16.163.096l1.329.767l46.502,26.848-1.771,1.022Z" opacity="0.3" fill="#d1ebfa"/><path d="M549.682,336.079l20.358-11.754-20.358,11.754Zm-1.771-1.024l-46.504-26.847-1.652-.955-.119-.069l15.93-9.196l30.571-17.651l1.772-1.023.298.172.144.084l1.329.767l46.502,26.847-1.771,1.024-46.502-26.847-20.603,11.895-25.899,14.952l46.504,26.847l23.249-13.424-23.249,13.424Zm50.043-26.847l-1.329-.768-.215-.123l1.544.891Z" opacity="0.3" fill="#d1ebfa"/><path d="M597.952,363.729l-1.612-.931-.16-.093-46.502-26.847-1.611-.931-.16-.092l23.25-13.425l23.25-13.422l1.771-1.024.229.133.214.123l1.33.768l48.274,27.87-48.273,27.871Zm-48.274-27.871l46.502,26.847l46.502-26.847-46.504-26.848-26.141,15.094-20.359,11.754Z" opacity="0.3" fill="#d1ebfa"/><path d="M115.259,141.12l23.251-13.424-23.25,13.424h-.001Zm-3.542,0L63.4429,113.249L113.486,84.3565l.443.2559L161.76,112.226l-1.772,1.023-46.502-26.8466L66.9861,113.249l46.5019,26.847l23.251-13.422-23.251,13.422-1.771,1.024Zm51.814-27.871l-1.329-.768-.282-.163l1.611.931Z" opacity="0.3" fill="#d1ebfa"/><path d="M163.516,168.772l23.251-13.425-23.251,13.425Zm-1.77-1.024l-47.833-27.615-.442-.256l23.251-13.422l23.25-13.425l1.772-1.023.16.092.282.163l1.329.768l46.502,26.847-1.771,1.024-46.502-26.847-23.251,13.423-23.251,13.424l46.504,26.847l23.249-13.424-23.249,13.424Z" opacity="0.3" fill="#d1ebfa"/><path d="M211.787,196.891v-.002l29.707-17.15-29.707,17.152Zm-1.772-1.024L163.513,169.02l-1.611-.931-.16-.093l23.249-13.424l23.251-13.423l1.773-1.024l1.77,1.024l15.304,8.835l19.879,11.479v2.045l-5.755-3.323-31.198-18.014-23.251,13.425-23.251,13.424l46.502,26.847l25.864-14.931-25.863,14.931" opacity="0.3" fill="#d1ebfa"/><path d="M246.966,219.053l-13.701-7.912l13.701,7.912Zm0-2.046l-3.983-2.3l3.983,2.3Zm-35.181-20.314l-1.772-1.022l25.864-14.931l11.089-6.403v2.046l-5.474,3.16-29.707,17.15Z" opacity="0.3" fill="#d1ebfa"/><path d="M451.353,335.078l-17.327-10.002l17.327,10.002l6.732-3.885-6.73,3.885h-.002Zm12.206-5l6.36-3.671-6.36,3.671Zm-.707-1.637h-.002l20.618-11.903-20.616,11.903Zm38.545-20.208l-1.329-.768-.324-.187l1.653.955Zm-3.542,0l-23.252-13.424-11.929-6.888v-2.046l21.648,12.498l15.304,8.836-1.772,1.024" opacity="0.3" fill="#d1ebfa"/><path d="M501.411,363.729l23.251-13.423-23.25,13.423h-.001Zm-3.543,0l-29.007-16.748l29.008,16.748h-.001Zm1.772-1.024l-15.304-8.836l15.304,8.836l28.199-16.279-28.199,16.279Zm50.044-26.847l-1.331-.768-.28-.163l1.611.931Zm-3.544,0L499.638,309.01l-29.707,17.151-6.36,3.671c-.15-.571-.388-1.119-.707-1.636l20.616-11.903l14.386-8.305l1.772-1.024.119.069.323.187l1.329.768l46.504,26.847-1.773,1.023Zm-93.626-.361l-1.148-.664l6.731-3.886c.115.141.171.263.171.354c0,.349-.499,1.156-1.873,1.95l-3.881,2.246Z" opacity="0.3" fill="#d1ebfa"/><path d="M549.681,391.846l20.604-11.895-20.604,11.897v-.002Zm-1.772-1.022l-46.502-26.847-1.654-.955-.117-.069l28.199-16.279l18.302-10.568l1.772-1.023.16.092.28.164l1.331.767l46.502,26.847-1.771,1.022-46.502-26.846-23.251,13.425-23.251,13.423l46.504,26.847l30.665-17.705-30.665,17.705h-.002Zm50.045-26.847l-1.329-.768-.283-.163l1.612.931Z" opacity="0.3" fill="#d1ebfa"/><path d="M597.952,419.496l-1.423-.822-.349-.2-46.502-26.847v-.001l-1.528-.882-.243-.141l30.665-17.705l15.835-9.143l1.771-1.022.16.092.283.164l1.33.767l48.274,27.87-48.273,27.87Zm-48.274-27.87l46.502,26.848l46.502-26.848-46.504-26.847-25.896,14.952-20.604,11.895Z" opacity="0.3" fill="#d1ebfa"/><path d="M115.259,196.889l26.143-15.093-26.142,15.095-.001-.002Zm-3.542,0L63.4429,169.02l48.2721-27.871l1.771-1.024.442.256l47.832,27.615-1.772,1.024-46.502-26.849L66.9861,169.02l46.5019,26.847l30.667-17.705-30.667,17.705-1.771,1.022Zm51.814-27.869l-1.329-.768-.282-.163l1.611.931Z" opacity="0.3" fill="#d1ebfa"/><path d="M163.516,224.539l15.835-9.142-15.835,9.142Zm-1.77-1.022l-47.833-27.615-.442-.256l30.667-17.705l15.834-9.142l1.772-1.023.16.092.282.164l1.329.767l46.502,26.847-1.771,1.022-46.502-26.847-20.359,11.755-26.143,15.092l46.504,26.849l20.358-11.754-20.358,11.754Z" opacity="0.3" fill="#d1ebfa"/><path d="M211.787,252.189l16.72-9.652-16.72,9.652Zm-1.772-1.022L163.513,224.32v-.001l-1.552-.896-.219-.127l20.359-11.754l26.141-15.094l1.771-1.022l1.772,1.022v.002l31.198,18.012l3.983,2.3v2.046l-13.701-7.912-23.252-13.424-30.665,17.705-15.835,9.142l46.503,26.848l25.625-14.795-25.625,14.795" opacity="0.3" fill="#d1ebfa"/><path d="M246.963,272.771l-35.179-20.31-1.493-.861-.278-.161l25.625-14.796l11.325-6.537v2.046l-18.46,10.656-16.719,9.653l35.179,20.31Z" opacity="0.3" fill="#d1ebfa"/><path d="M449.597,335.799l-17.329-10.004l1.773-1.023l17.327,10.003-1.771,1.024Z" fill="#d1ebfa"/><path d="M453.139,391.846l23.249-13.422-23.249,13.424v-.002Zm-1.772-1.022l-25.601-14.781l25.601,14.781l19.066-11.007-19.066,11.007Zm50.043-26.845l-1.329-.768-.325-.187l1.654.955Zm-3.542,0L468.86,347.23l-12.626-7.289l1.771-1.026l26.33,15.203l15.304,8.837-1.772,1.022.001.002ZM443.4,341.022l-1.159-.67l7.353-4.246l1.771-1.023l1.149.663-9.114,5.276Z" opacity="0.3" fill="#d1ebfa"/><path d="M501.412,419.495l25.625-14.794-25.625,14.794Zm-1.772-1.023l-46.503-26.846.001-.002-1.612-.929-.16-.093l19.066-11.007l27.434-15.839v-.001l1.772-1.022.117.068.325.188l1.329.767l46.502,26.847-1.771,1.023-46.502-26.847-23.25,13.422-23.25,13.423l46.502,26.848l16.793-9.695-16.793,9.695Zm50.043-26.845l-1.329-.768-.198-.115l1.527.882" opacity="0.3" fill="#d1ebfa"/><path d="M549.68,447.615l18.303-10.566-18.303,10.566Zm-3.542,0l-15.304-8.836l15.304,8.836Zm1.773-1.022l-31.2-18.014l31.2,18.012l23.249-13.422-23.249,13.424Zm50.043-26.849l-1.329-.766-.095-.056l1.424.822Zm-3.543,0l-46.502-26.846-20.875,12.051-25.627,14.794-1.771-1.022l16.794-9.696l29.707-17.151l1.772-1.022.243.14.199.116l1.329.767l46.502,26.847-1.771,1.022Z" fill="#d1ebfa"/><path d="M596.18,476.289l-.442-.258-47.831-27.613l1.769-1.023-1.769-1.023l23.249-13.424l23.251-13.424l1.771-1.022.349.2.094.056l1.33.766l48.274,27.871-50.045,28.894Zm-46.504-28.894l46.504,26.846l46.502-26.846-46.504-26.847-28.198,16.281-18.304,10.566Z" opacity="0.3" fill="#d1ebfa"/><path d="M115.259,252.189l23.251-13.422-23.25,13.422h-.001Zm-3.544,0L63.4429,224.317l48.2721-27.869l1.771-1.022.442.256l47.832,27.614-1.772,1.023-46.502-26.847-46.4999,26.845l46.5019,26.85l23.251-13.424-23.251,13.424-1.773,1.022Zm51.816-27.869l-1.329-.768-.222-.129l1.551.896" opacity="0.3" fill="#d1ebfa"/><path d="M163.516,280.308l23.251-13.424-23.251,13.424Zm-1.772-1.022l-47.831-27.615-.442-.256l23.251-13.424l23.25-13.424l1.772-1.022.219.126.223.13l1.329.767l46.502,26.847-1.771,1.022-46.502-26.846-23.251,13.424-23.251,13.422l46.504,26.847l23.249-13.422-23.249,13.424v-.002l-.002.002Zm50.045-26.849l-1.329-.766-.163-.094l1.492.86Z" opacity="0.3" fill="#d1ebfa"/><path d="M211.787,307.958l30.571-17.65-30.571,17.65Zm-1.771-1.023h-.001l-46.502-26.847-1.496-.864-.275-.158l23.249-13.425l23.251-13.424l1.773-1.022.278.161.163.095l1.329.766l35.18,20.311v2.046l-36.95-21.333-23.251,13.422-23.251,13.425l46.502,26.847l20.603-11.895-20.602,11.895Z" opacity="0.3" fill="#d1ebfa"/><path d="M260.058,336.102l13.176-7.608-13.176,7.608Zm-1.773-1.024l-1.665-.961l1.665.961l13.177-7.606h.001l-13.178,7.606Zm-6.95-4.012l-39.551-22.835-1.613-.931-.158-.092l20.602-11.895l16.346-9.438v2.046l-4.607,2.66-30.57,17.65l39.552,22.835h-.001Z" opacity="0.3" fill="#d1ebfa"/><path d="M260.056,336.214l-1.773-1.023l13.178-7.607l1.771,1.022-13.176,7.608Z" fill="#d1ebfa"/><path d="M404.865,419.529l23.251-13.423-23.251,13.423Zm-1.773-1.023l-25.538-14.745l25.538,14.745l23.251-13.424-23.249,13.424h-.002Zm50.044-26.847l-1.328-.767-.283-.164l1.612.93-.001.001Zm-3.542-.001l-25.599-14.779l1.769-1.024l25.601,14.781-1.771,1.022Z" opacity="0.3" fill="#d1ebfa"/><path d="M451.368,448.639v-.002.002Zm1.772-1.024l23.25-13.422-23.25,13.422Zm-1.772-1.022l-46.502-26.849-1.612-.929-.159-.093l23.25-13.424l23.25-13.424l1.771-1.022.16.092.283.164l1.328.767l46.503,26.847-1.772,1.022-46.502-26.846-23.249,13.424-23.251,13.422l46.502,26.849l28.2-16.281-28.2,16.281Z" opacity="0.3" fill="#d1ebfa"/><path d="M499.64,476.289l-.443-.258-47.831-27.613v-.001l1.772-1.022-1.772-1.023l28.2-16.281l18.3-10.567l1.772-1.022l1.773,1.022l15.302,8.836l31.2,18.014l1.769,1.022-1.769,1.024h-.002L499.64,476.289Zm-46.502-28.894l46.502,26.846l46.5-26.845-15.304-8.836-31.198-18.012-23.25,13.424-23.25,13.423Z" opacity="0.3" fill="#d1ebfa"/><path d="M115.259,307.958l33.128-19.127-33.127,19.127h-.001Zm-3.544,0L63.4429,280.086l48.2711-27.869l1.772-1.022.442.256l47.831,27.615-1.771,1.022-46.502-26.847-46.4999,26.845l46.5019,26.849l15.835-9.142-15.835,9.142-1.773,1.023Zm51.816-27.87l-1.329-.767-.166-.097l1.495.864Z" opacity="0.3" fill="#d1ebfa"/><path d="M163.516,336.079l23.251-13.425-23.251,13.425Zm-1.77-1.024L113.913,307.44l-.442-.256l15.835-9.142l30.666-17.705l1.772-1.023v.001l.275.159.167.097l1.329.766l46.502,26.847-1.771,1.024-46.502-26.847-13.373,7.72-33.129,19.127l46.504,26.847l18.301-10.566-18.301,10.566Zm50.043-26.847l-1.329-.768-.283-.163l1.612.931Z" fill="#d1ebfa"/><path d="M211.787,363.729l23.251-13.424-23.251,13.424Zm-1.772-1.024l-46.502-26.847-1.611-.931-.16-.092l18.302-10.566l28.198-16.281l1.771-1.024h.002l.158.093.283.163l1.329.768l39.552,22.835c-.479.415-.899.857-1.258,1.318l-40.066-23.13-23.249,13.423-23.251,13.424l46.502,26.847l18.301-10.565-18.3,10.565h-.001Zm46.501-26.847l-1.562-.902c.263-.225.593-.461.999-.696l.669-.387l1.665.962-1.771,1.023Z" opacity="0.3" fill="#d1ebfa"/><path d="M260.058,391.846l15.929-9.196-15.929,9.198v-.002Zm-3.545,0l-20.602-11.895l20.603,11.895h-.001Zm1.772-1.022L227.62,373.119l30.665,17.705l23.134-13.357-23.134,13.357Zm-46.5-26.847l-1.772-1.024l18.301-10.565l21.461-12.391c.349.473.77.916,1.258,1.319l-15.997,9.237-23.251,13.424Zm59.037-19.61l-12.537-7.238-1.879,1.086-1.406-.813c-.13-.073-.245-.149-.346-.222l1.86-1.074l1.771-1.023l1.773,1.023l12.533,7.237-1.769,1.024Z" opacity="0.3" fill="#d1ebfa"/><path d="M308.33,419.511l20.874-12.052-20.874,12.052Zm-1.772-1.022l-46.504-26.847.002-.002-1.576-.909-.197-.113l23.134-13.357l1.771,1.024-7.203,4.159-15.929,9.196l46.502,26.849l23.134-13.356-23.134,13.356Z" opacity="0.3" fill="#d1ebfa"/><path d="M354.828,448.636v-.002.002Zm1.771-1.024l26.143-15.093-26.143,15.093Zm-3.543,0L321.858,429.6l31.198,18.012Zm1.772-1.022l-17.495-10.102l17.495,10.102l23.249-13.424-23.249,13.424Zm50.044-26.849l-1.33-.766-.283-.163l1.613.929Zm-3.544,0l-25.536-14.744l1.769-1.023l25.538,14.745-1.771,1.022Zm-93.002-.001l-1.772-1.022l23.134-13.356l1.771,1.022-2.259,1.304-20.875,12.052" fill="#d1ebfa"/><path d="M403.097,476.289l-.441-.258-47.831-27.613v-.001l1.771-1.022-1.771-1.023l23.249-13.424l23.251-13.424l1.771-1.022h.001l.159.093.283.163l1.329.766l46.502,26.848l1.772,1.023-1.772,1.022v.001l-48.273,27.871Zm-46.501-28.894l46.501,26.846l46.502-26.846-46.503-26.847-20.357,11.754-26.143,15.093Z" opacity="0.3" fill="#d1ebfa"/><path d="M115.26,363.727l16.793-9.694-16.793,9.694Zm-3.543-.001L63.4429,335.857l48.2711-27.869l1.772-1.024.442.256l47.832,27.615-1.772,1.023-46.502-26.847-46.4999,26.846l46.5019,26.847l29.705-17.15-29.705,17.15-1.771,1.022Zm51.814-27.868l-1.329-.768-.282-.163l1.611.931Z" opacity="0.3" fill="#d1ebfa"/><path d="M163.516,391.846l15.93-9.196-15.93,9.198v-.002Zm-3.543,0l-23.251-13.424l23.251,13.424Zm1.773-1.022L138.495,377.4l23.251,13.424l30.571-17.651-30.571,17.651Zm46.5-26.847l-46.502-26.848-29.707,17.153-16.795,9.693-1.771-1.023l29.706-17.15l16.795-9.696l1.772-1.023.16.092.282.164l1.329.767l46.502,26.847-1.771,1.022" opacity="0.3" fill="#d1ebfa"/><path d="M211.787,419.496l23.249-13.422-23.249,13.422Zm-1.772-1.022l-46.502-26.847v-.001l-1.584-.914-.187-.109l30.571-17.65l15.929-9.198l1.771-1.022l1.772,1.023l15.835,9.142l30.666,17.705-1.771,1.023-20.604-11.895-25.898-14.952-30.571,17.65-15.929,9.197l46.502,26.848l23.25-13.424-23.249,13.424h-.001Zm50.041-26.847l-1.327-.768-.247-.142l1.576.909" opacity="0.3" fill="#d1ebfa"/><path d="M256.515,447.615l-18.302-10.566l18.302,10.566Zm3.543,0l18.301-10.566-18.301,10.566Zm-1.773-1.022l-23.249-13.424l23.249,13.422l23.251-13.422-23.251,13.424Zm46.502-26.849l-46.503-26.846-23.249,13.424-23.25,13.422-1.772-1.022l23.251-13.424l23.247-13.424h.002l1.771-1.022.197.113.246.143l1.328.767l46.503,26.847-1.772,1.022" opacity="0.3" fill="#d1ebfa"/><path d="M306.558,476.289l-.442-.256-47.833-27.615l1.773-1.023-1.773-1.023l23.251-13.424l23.25-13.424l1.772-1.022l1.772,1.022l29.007,16.748l17.495,10.102l1.771,1.022-1.771,1.022-.001.002-48.271,27.869Zm-46.502-28.894l46.502,26.846l46.5-26.845-31.198-18.012-15.304-8.836-28.199,16.281-18.301,10.566Z" opacity="0.3" fill="#d1ebfa"/><path d="M115.259,419.496l32.114-18.54-32.113,18.54h-.001Zm-3.542,0l-48.2741-27.87l48.2721-27.871l1.771-1.022l1.773,1.023l23.251,13.425l23.249,13.424-1.771,1.022-23.251-13.424-23.251-13.424-46.4999,26.847l46.5019,26.848l16.719-9.652-16.719,9.652-1.771,1.022Zm51.814-27.867l-1.329-.768-.254-.147l1.583.913" opacity="0.3" fill="#d1ebfa"/><path d="M161.746,448.637h-.002.002Zm1.77-1.023l29.783-17.193-29.783,17.193Zm-1.77-1.023l-47.833-27.614-.442-.256l16.72-9.653l29.781-17.194l1.772-1.022.187.108.255.148l1.329.767l46.502,26.847-1.771,1.022-46.502-26.846-14.387,8.305-32.115,18.54l46.504,26.848l14.385-8.305-14.385,8.305Z" opacity="0.3" fill="#d1ebfa"/><path d="M210.013,476.289l-48.271-27.872l1.771-1.024-1.771-1.022l14.386-8.306l32.114-18.541l1.771-1.022l1.772,1.022l23.251,13.424l23.25,13.424l1.772,1.023-1.772,1.023-48.273,27.871Zm-46.5-28.896l46.5,26.848l46.502-26.846-18.302-10.566-28.2-16.281-16.718,9.652-29.782,17.193Z" opacity="0.3" fill="#d1ebfa"/><path d="M113.488,476.289l-.442-.258-49.6031-28.636l48.2721-27.871l1.771-1.022.442.256l47.832,27.614l1.771,1.023-1.771,1.023h-.001l-48.271,27.871Zm-.002-55.741L66.9861,447.395l46.5019,26.846l46.5-26.846-46.502-26.847Z" opacity="0.3" fill="#d1ebfa"/><path d="M63.9251,327.009c-.9454.545-1.8572,1.227-2.7274,1.998-.3775-12.271-9.2427-17.153-20.1507-10.856-8.8845,5.131-16.4124,16.112-19.1094,26.876-2.1948-.296-4.7702.275-7.5376,1.873C6.44658,351.493,0,362.658,0,371.84c0,9.184,6.44658,12.905,14.4,8.314l49.5251-28.592c5.8723-3.392,10.6313-11.635,10.6313-18.415s-4.759-9.528-10.6313-6.138Z" fill="#fff"/><path d="M448.109,402.151c0,2.98-2.089,6.598-4.669,8.089-2.579,1.489-4.669.282-4.669-2.697c0-2.977,2.09-6.599,4.669-8.086c2.58-1.49,4.669-.283,4.669,2.694Z" fill="#fff"/><path d="M463.224,393.248c0,2.978-2.09,6.598-4.67,8.088-2.578,1.489-4.669.281-4.669-2.697c0-2.977,2.091-6.599,4.669-8.087c2.58-1.489,4.67-.283,4.67,2.696Z" fill="#fff"/><path d="M478.396,384.812c0,2.979-2.09,6.599-4.67,8.088-2.578,1.489-4.669.281-4.669-2.695c0-2.979,2.091-6.599,4.669-8.088c2.58-1.49,4.67-.283,4.67,2.695Z" fill="#fff"/><path d="M493.51,375.909c0,2.977-2.091,6.599-4.669,8.086-2.579,1.49-4.67.282-4.67-2.695c0-2.979,2.091-6.599,4.67-8.088c2.578-1.489,4.669-.281,4.669,2.697Z" fill="#fff"/><path d="M230.13,485.57c0,2.979-2.09,6.6-4.669,8.09-2.579,1.487-4.669.28-4.669-2.697s2.09-6.599,4.669-8.088c2.579-1.488,4.669-.282,4.669,2.695Z" fill="#fff"/><path d="M243.018,478.074c0,2.977-2.091,6.599-4.669,8.086-2.581,1.49-4.67.282-4.67-2.695c0-2.979,2.089-6.599,4.67-8.088c2.578-1.489,4.669-.281,4.669,2.697Z" fill="#fff"/><path d="M230.13,470.573c0,2.977-2.09,6.599-4.669,8.089-2.579,1.488-4.669.282-4.669-2.697c0-2.977,2.09-6.598,4.669-8.086c2.579-1.489,4.669-.283,4.669,2.694Z" fill="#fff"/><path d="M243.018,463.546c0,2.977-2.091,6.599-4.669,8.087-2.581,1.489-4.67.281-4.67-2.696c0-2.978,2.089-6.598,4.67-8.088c2.578-1.489,4.669-.283,4.669,2.697Z" fill="#fff"/><path d="M186.839,112.948l-9.339,5.391v-10.783l9.339-5.391v10.783Z" fill="#fff"/><path d="M199.787,105.45l-9.341,5.391v-10.783l9.341-5.3913v10.7833Z" fill="#fff"/><path d="M186.956,127.008l-9.339,5.391v-10.784l9.339-5.391v10.784Z" fill="#fff"/><path d="M199.787,119.509l-9.341,5.391v-10.782l9.341-5.392v10.783Z" fill="#fff"/><path d="M490.191,72.6288c-3.395,0-5.727-2.7066-5.727-7.3887c0-6.5986,4.634-14.6224,10.35-17.9225c1.654-.955,3.213-1.4029,4.599-1.4029.51,0,.998.0624,1.457.1808-.128-1.0254-.218-2.086-.218-3.2249c0-13.7922,9.685-30.5629,21.629-37.46059c3.464-1.99956,6.732-2.94495,9.63-2.94495c4.21,0,7.637,1.99796,9.732,5.65956c2.086-2.52425,4.478-4.65818,7.025-6.12826C551.014,0.641461,553.23,0,555.194,0c4.689,0,7.938,3.6568,8.088,9.99461c1.366-1.60605,2.916-2.96895,4.562-3.91914c1.598-.9214,3.107-1.3597,4.444-1.3597c3.265,0,5.506,2.60262,5.506,7.10403c0,2.3755-.626,4.9445-1.696,7.3936-.787-4.9445-3.788-7.7455-7.889-7.7455-1.965,0-4.182.6414-6.527,1.9963-2.546,1.4701-4.941,3.6041-7.025,6.1283-2.096-3.6616-5.522-5.6596-9.733-5.6596-2.898,0-6.166.9454-9.63,2.945-11.944,6.8961-21.627,23.6684-21.627,37.4606c0,1.1389.09,2.1995.218,3.2249-.461-.12-.949-.1808-1.461-.1808-1.383,0-2.943.4463-4.597,1.4013-3.438,1.9868-6.487,5.6835-8.368,9.7498l-4.645,2.6827c-1.662.9582-3.232,1.4124-4.623,1.4124Z" fill="#c4e6f9"/><path d="M503.196,83.847c-3.396,0-5.727-2.7066-5.727-7.3888c0-2.6282.734-5.482,1.98-8.1742l68.385-39.4841c3.438-1.9836,6.468-5.7444,8.254-9.8363.112.7071.181,1.4573.199,2.2491c1.367-1.606,2.916-2.9689,4.562-3.9191c1.598-.923,3.106-1.3597,4.444-1.3597c3.265,0,5.506,2.6026,5.506,7.1024c0,6.3458-4.455,14.0594-9.95,17.2315L507.817,82.4345c-1.66.9582-3.23,1.4125-4.621,1.4125Z" fill="#daf0fc"/><path d="M499.461,68.3133c1.881-4.0663,4.93-7.7631,8.367-9.7498c1.654-.955,3.214-1.4013,4.598-1.4013.512,0,.999.0608,1.46.1807-.128-1.0253-.217-2.0859-.217-3.2249c0-13.7921,9.682-30.5644,21.627-37.4605c3.463-1.9996,6.731-2.945,9.63-2.945c4.21,0,7.637,1.998,9.732,5.6596c2.084-2.5243,4.479-4.6582,7.026-6.1283c2.345-1.3549,4.562-1.9963,6.526-1.9963c4.102,0,7.103,2.8009,7.89,7.7455-1.787,4.0919-4.817,7.8526-8.255,9.8362L499.461,68.3133Z" fill="#e3f4fd"/><path d="M593.854,29.0382c-1.648.9518-3.195,2.3131-4.562,3.9208-.215-8.9932-6.668-12.5877-14.616-7.9999-2.545,1.4701-4.94,3.6056-7.024,6.1299-3.54-6.1843-10.868-7.6191-19.362-2.7146-11.947,6.8961-21.628,23.6684-21.628,37.4606c0,1.1389.088,2.1995.215,3.2248-1.702-.4431-3.792-.0863-6.057,1.2206-5.714,3.3-10.346,11.3255-10.346,17.924c0,6.6002,4.632,9.2748,10.346,5.9763L593.854,52.014c5.493-3.1721,9.948-10.8856,9.948-17.2314c0-6.3442-4.455-8.9149-9.948-5.7444Z" fill="#fff"/><path d="M194.798,334.406h.016-.016ZM172,321.244v23.717l20.54-11.859v-23.719L172,321.244Zm-2.259,29.886c-.39,0-.779-.1-1.129-.302-.699-.401-1.129-1.15-1.129-1.956v-28.933c0-.808.43-1.553,1.129-1.956l25.057-14.466c.699-.403,1.558-.403,2.259,0c.699.401,1.129,1.147,1.129,1.955v28.934c0,.808-.43,1.553-1.129,1.957l-25.057,14.465c-.351.202-.739.302-1.13.302Z" fill="#fff"/><path d="M152.538,492.097L116.4,471.232l36.136-20.862l36.138,20.864-36.136,20.863Z" opacity="0.3" fill="#0030ad"/><path d="M121.89,455.702l30.643,17.692l30.641-17.692-30.643-17.689-30.641,17.689Zm30.643,23.612c-.475,0-.949-.123-1.373-.367l-36.137-20.865c-.85-.491-1.376-1.398-1.376-2.38c0-.981.526-1.888,1.376-2.379l36.136-20.862c.849-.491,1.895-.491,2.745,0l36.137,20.862c.851.491,1.376,1.398,1.376,2.379c0,.982-.523,1.889-1.376,2.38l-36.136,20.865c-.424.244-.897.367-1.372.367Z" fill="#fff"/><path d="M188.681,439.607l-36.136,20.862v-41.725l36.136-20.863v41.726Z" clip-rule="evenodd" fill="url(#e8aVD3HMJ5o83-fill)" fill-rule="evenodd"/><path d="M152.536,418.517L116.4,397.655l36.135-20.863l36.136,20.863-36.135,20.862Z" clip-rule="evenodd" fill="url(#e8aVD3HMJ5o84-fill)" fill-rule="evenodd"/><path d="M152.536,460.469L116.4,439.607v-41.726l36.136,20.863v41.725Z" clip-rule="evenodd" fill="url(#e8aVD3HMJ5o85-fill)" fill-rule="evenodd"/><path d="M139.51,437.881l-10.105-5.834v-11.671l10.105,5.836v11.669Z" fill="#fff"/><path d="M557.155,267.615l-36.137-20.864l36.133-20.863l36.14,20.863-36.136,20.864Z" opacity="0.3" fill="#0030ad"/><path d="M526.508,230.752l30.641,17.69l30.641-17.69-30.644-17.689-30.638,17.689Zm30.641,23.61c-.473,0-.948-.123-1.374-.369l-36.136-20.861c-.849-.491-1.374-1.4-1.374-2.38c0-.981.525-1.888,1.374-2.379l36.136-20.863c.849-.491,1.896-.491,2.747,0l36.137,20.863c.85.491,1.374,1.398,1.374,2.379c0,.98-.524,1.889-1.374,2.38l-36.136,20.861c-.427.246-.899.369-1.374.369Z" fill="#fff"/><path d="M593.299,214.656L557.163,235.52v-41.725l36.136-20.864v41.725Z" clip-rule="evenodd" fill="url(#e8aVD3HMJ5o89-fill)" fill-rule="evenodd"/><path d="M557.153,193.569l-36.135-20.865l36.132-20.862l36.139,20.864-36.136,20.863Z" clip-rule="evenodd" fill="url(#e8aVD3HMJ5o90-fill)" fill-rule="evenodd"/><path d="M557.153,235.52l-36.135-20.864v-41.725l36.135,20.864v41.725Z" clip-rule="evenodd" fill="url(#e8aVD3HMJ5o91-fill)" fill-rule="evenodd"/><path d="M544.131,212.931l-10.108-5.834v-11.671l10.108,5.834v11.671Z" fill="#fff"/><path d="M547.028,173.262l10.036-5.955l10.176,5.714-10.036,5.955-10.176-5.714Z" fill="#fff"/><path d="M557.155,492.097l-36.137-20.865l36.133-20.862l36.14,20.864-36.136,20.863Z" opacity="0.3" fill="#0030ad"/><path d="M526.506,455.702l30.643,17.692l30.643-17.692-30.646-17.689-30.64,17.689Zm30.643,23.612c-.473,0-.948-.123-1.374-.367l-36.136-20.865c-.849-.491-1.374-1.398-1.374-2.38c0-.981.525-1.888,1.374-2.379l36.136-20.862c.849-.491,1.896-.491,2.747,0l36.137,20.862c.85.491,1.374,1.398,1.374,2.379c0,.982-.523,1.889-1.374,2.38l-36.136,20.865c-.427.244-.899.367-1.374.367Z" fill="#fff"/><path d="M593.299,439.607l-36.136,20.862v-41.725l36.136-20.863v41.726Z" clip-rule="evenodd" fill="url(#e8aVD3HMJ5o96-fill)" fill-rule="evenodd"/><path d="M557.153,418.517l-36.135-20.862l36.132-20.863l36.137,20.863-36.134,20.862Z" clip-rule="evenodd" fill="url(#e8aVD3HMJ5o97-fill)" fill-rule="evenodd"/><path d="M557.153,460.469l-36.135-20.862v-41.726l36.135,20.863v41.725Z" clip-rule="evenodd" fill="url(#e8aVD3HMJ5o98-fill)" fill-rule="evenodd"/><path d="M544.131,437.881l-10.108-5.834v-11.671l10.108,5.836v11.669Z" fill="#fff"/><path d="M152.538,267.615L116.4,246.751l36.136-20.863l36.138,20.863-36.136,20.864Z" opacity="0.3" fill="#0030ad"/><path d="M121.892,230.752l30.641,17.69l30.64-17.69-30.642-17.689-30.639,17.689Zm30.641,23.61c-.475,0-.949-.123-1.373-.369l-36.137-20.861c-.85-.491-1.376-1.4-1.376-2.38c0-.981.526-1.888,1.376-2.379l36.136-20.863c.849-.491,1.895-.491,2.745,0l36.137,20.863c.851.491,1.376,1.398,1.376,2.379c0,.98-.525,1.889-1.376,2.38l-36.136,20.861c-.424.246-.897.369-1.372.369Z" fill="#fff"/><path d="M188.681,214.656L152.545,235.52v-41.725l36.136-20.864v41.725Z" clip-rule="evenodd" fill="url(#e8aVD3HMJ5o102-fill)" fill-rule="evenodd"/><path d="M152.536,193.569L116.4,172.704l36.135-20.862l36.136,20.864-36.135,20.863Z" clip-rule="evenodd" fill="url(#e8aVD3HMJ5o103-fill)" fill-rule="evenodd"/><path d="M152.536,235.52L116.4,214.656v-41.725l36.136,20.864v41.725Z" clip-rule="evenodd" fill="url(#e8aVD3HMJ5o104-fill)" fill-rule="evenodd"/><path d="M139.51,212.931l-10.105-5.834v-11.671l10.105,5.834v11.671Z" fill="#fff"/><path d="M434.838,267.889l-2.746-4.759L537.18,202.456l2.746,4.758-105.088,60.675Z" fill="#fff"/><path d="M346.283,414.668l-92.679-53.506c-3.396-1.962-2.969-5.387.952-7.65l98.228-56.859c3.922-2.264,9.854-2.512,13.25-.551l92.679,53.507c3.396,1.963,2.969,5.386-.952,7.651l-98.228,56.858c-3.922,2.265-9.854,2.511-13.25.55Z" opacity="0.3" fill="#0030ad"/><path d="M347.708,390.656c2.545,1.468,7.452,1.211,10.503-.55l98.226-56.858c1.374-.794,1.874-1.602,1.874-1.95c0-.207-.285-.576-.92-.944l-92.677-53.507c-2.546-1.47-7.453-1.212-10.504.55l-98.226,56.857c-1.374.793-1.873,1.601-1.873,1.951c0,.204.284.576.921.943l92.676,53.508Zm4.394,6.437c-2.646,0-5.193-.555-7.141-1.68l-92.677-53.507c-2.331-1.346-3.667-3.424-3.667-5.701c0-2.569,1.683-5.013,4.617-6.709L351.46,272.64c4.755-2.746,11.78-2.988,16-.552l92.677,53.508c2.331,1.344,3.667,3.422,3.667,5.702c0,2.569-1.683,5.013-4.617,6.705l-98.226,56.858c-2.558,1.478-5.775,2.232-8.859,2.232Z" fill="#fff"/><path d="M352.774,371.696c1.262-.886,2.048-2.705,2.048-5.223v-226.262c0-2.374-.699-4.935-1.838-7.184l17.473-10.089l1.77-1.022l46.501-26.8468l1.77-1.0222l40.323-23.2813c1.152,2.2603,1.868,4.8341,1.868,7.2224v226.2619c0,2.611-.851,4.46-2.196,5.306l.003.01-.192.11-.051.031-13.843,7.984-5.497,3.17-6.872,3.964-1.772,1.022-7.357,4.242-72.138,41.607Z" clip-rule="evenodd" fill="url(#e8aVD3HMJ5o109-fill)" fill-rule="evenodd"/><path d="M352.987,132.986c-1.213-2.397-2.923-4.441-4.818-5.535L253.615,72.8613c-.939-.5423-1.832-.7982-2.643-.7982-.531,0-1.028.1104-1.476.3247L357.175,10.2655c.5-.27837,1.063-.42395,1.673-.42395.808,0,1.697.25595,2.634.79665l94.552,54.5896c1.885,1.0877,3.584,3.1177,4.795,5.4948L420.501,94.0071l-1.772,1.0221L372.23,121.876l-1.772,1.022-17.471,10.088Z" clip-rule="evenodd" fill="url(#e8aVD3HMJ5o110-fill)" fill-rule="evenodd"/><path d="M348.188,371.577l-94.553-54.59c-3.676-2.123-6.658-7.817-6.658-12.72v-226.2625c0-4.9029,2.982-7.1569,6.658-5.0341L348.188,127.56c3.675,2.123,6.656,7.817,6.656,12.72v226.263c0,4.904-2.981,7.157-6.656,5.034Z" fill="#5593ce"/><path d="M350.222,126.619l-94.55-54.5897c-2.128-1.2269-4.02-.9838-5.239.3871.953-.152,2.048.0784,3.211.7502l94.553,54.5894c3.675,2.123,6.656,7.819,6.656,12.721v226.262c0,2.065-.532,3.652-1.42,4.65c2.054-.326,3.447-2.436,3.447-5.787v-226.263c0-4.901-2.98-10.597-6.658-12.72Z" fill="#fff"/><path d="M342.249,357.961l-82.656-47.72c-3.215-1.856-5.821-6.836-5.821-11.121v-210.1348c0-4.2854,2.606-6.2546,5.821-4.399l82.656,47.7208c3.215,1.856,5.821,6.834,5.821,11.119v210.136c0,4.286-2.606,6.255-5.821,4.399Z" fill="#1f3e79"/><path d="M344.949,356.37l-82.655-47.72c-3.214-1.856-5.82-6.837-5.82-11.121v-210.1347c0-1.4604.309-2.6442.835-3.5064-2.079-.0176-3.537,1.8908-3.537,5.0949v210.1342c0,4.286,2.606,9.266,5.821,11.121l82.656,47.721c2.118,1.224,3.965.776,4.984-.893-.7-.005-1.473-.228-2.284-.696Z" fill="#386dab"/><path d="M342.221,261.433L311.5,243.696l-48.999,28.289l85.542,49.387v-48.818c0-4.285-2.606-9.265-5.822-11.121Z" fill="#1f3e79"/><path d="M342.221,218.318L311.5,200.581l-48.999,28.288l85.542,49.388v-48.818c0-4.287-2.606-9.266-5.822-11.121Z" fill="#1f3e79"/><path d="M342.221,175.671L311.5,157.934l-48.999,28.288l85.542,49.386v-48.816c0-4.287-2.606-9.266-5.822-11.121Z" fill="#1f3e79"/><path d="M342.221,132.557L311.5,114.819l-48.999,28.289l85.542,49.386v-48.816c0-4.287-2.606-9.265-5.822-11.121Z" fill="#1f3e79"/><path d="M342.221,132.529L274.208,93.2607l-11.707,6.7583l85.542,49.386v-5.755c0-4.287-2.606-9.266-5.822-11.121Z" fill="#1f3e79"/><path d="M348.043,149.209L262.501,99.8219v27.2161l85.542,49.386v-27.215Z" fill="#5593ce"/><path d="M348.043,192.325l-85.542-49.388v27.217l85.542,49.387v-27.216Z" fill="#5593ce"/><path d="M348.043,235.44l-85.542-49.387v27.218l85.542,49.386v-27.217Z" fill="#5593ce"/><path d="M348.043,278.554l-85.542-49.386v27.217l85.542,49.386v-27.217Z" fill="#5593ce"/><path d="M348.043,321.671l-85.542-49.387v27.216l85.542,49.386v-27.215Z" fill="#5593ce"/><path d="M340.536,166.61l-64.433-37.198c-1.817-1.051-3.292-3.868-3.292-6.295v-7.288c0-2.425,1.475-3.54,3.292-2.49l64.433,37.199c1.817,1.05,3.292,3.868,3.292,6.292v7.289c0,2.427-1.475,3.541-3.292,2.491Z" fill="#1f3e79"/><path d="M340.899,166.793c-.12-.051-.24-.112-.363-.182l-64.433-37.199c-1.817-1.051-3.292-3.868-3.292-6.294c0,2.426,1.475,5.243,3.292,6.294l64.433,37.199c.123.07.243.131.363.182ZM272.811,115.83c0-1.8.811-2.878,1.973-2.886-1.162.008-1.973,1.086-1.973,2.886Zm1.992-2.886c-.002,0-.003,0-.005,0c.002,0,.003,0,.005,0Z" fill="#4068a4"/><path d="M341.831,167.002c-.291,0-.604-.067-.932-.209-.12-.051-.24-.112-.363-.182l-64.433-37.199c-1.817-1.051-3.292-3.868-3.292-6.294v-7.288c0-1.8.811-2.878,1.973-2.886h.019c.398.002.838.128,1.3.395l.084.048c-.071.317-.12.659-.12,1.046v7.29c0,2.425,1.474,5.242,3.293,6.293l64.348,37.15c-.261,1.165-.958,1.836-1.877,1.836Z" fill="#233066"/><path d="M320.299,146.992l-38.771-22.383c-.642-.37-1.16-1.36-1.16-2.216c0-.853.518-1.244,1.16-.873l38.771,22.384c.639.369,1.159,1.359,1.159,2.213c0,.855-.52,1.247-1.159.875Z" transform="translate(.008 0.024323)" fill="#fff"/><path id="e8aVD3HMJ5o129" d="M320.299,146.992l-38.771-22.383c-.642-.37-1.16-1.36-1.16-2.216c0-.853.518-1.244,1.16-.873l38.771,22.384c.639.369,1.159,1.359,1.159,2.213c0,.855-.52,1.247-1.159.875Z" transform="translate(.008 0.024323)" opacity="0" fill="#ed3795"/><path d="M340.536,209.726l-64.433-37.199c-1.817-1.052-3.292-3.868-3.292-6.294v-7.29c0-2.423,1.475-3.538,3.292-2.489l64.433,37.2c1.817,1.049,3.292,3.868,3.292,6.291v7.29c0,2.427-1.475,3.54-3.292,2.491Z" fill="#1f3e79"/><path d="M340.814,209.884c-.005-.003-.008-.004-.013-.006.005.002.008.003.013.006Zm-.021-.009c-.085-.042-.171-.087-.257-.136l-64.433-37.198c-1.817-1.053-3.292-3.868-3.292-6.295c0,2.427,1.475,5.242,3.292,6.295l64.433,37.198c.086.049.172.094.257.136Zm-67.982-51.007c.016-1.063.322-1.865.815-2.332-.493.467-.799,1.269-.815,2.332Zm.818-2.333c.001-.004.005-.005.006-.007-.001.002-.005.003-.006.007Z" fill="#4068a4"/><path d="M341.831,210.118c-.315,0-.657-.08-1.017-.246-.005-.004-.008-.005-.013-.007-.003-.001-.005-.003-.008-.003-.085-.042-.171-.086-.257-.136l-64.433-37.198c-1.817-1.053-3.292-3.868-3.292-6.295v-7.289c0-.029,0-.06,0-.088.016-1.064.322-1.866.815-2.333.001-.001.001-.001.003-.001.001-.003.005-.005.006-.007.318-.297.714-.456,1.161-.456.402,0,.843.128,1.307.397l.084.046c-.071.317-.12.66-.12,1.047v7.289c0,2.427,1.474,5.242,3.293,6.293l64.348,37.151c-.261,1.164-.958,1.836-1.877,1.836Z" fill="#233066"/><path d="M320.299,189.639l-38.771-22.384c-.642-.369-1.16-1.359-1.16-2.214c0-.854.518-1.246,1.16-.875l38.771,22.384c.639.37,1.159,1.36,1.159,2.213c0,.855-.52,1.247-1.159.876Z" fill="#fff"/><path id="e8aVD3HMJ5o134" d="M320.299,189.639l-38.771-22.384c-.642-.369-1.16-1.359-1.16-2.214c0-.854.518-1.246,1.16-.875l38.771,22.384c.639.37,1.159,1.36,1.159,2.213c0,.855-.52,1.247-1.159.876Z" opacity="0" fill="#ed3795"/><path d="M340.536,252.841l-64.433-37.198c-1.817-1.051-3.292-3.868-3.292-6.295v-7.288c0-2.425,1.475-3.541,3.292-2.489l64.433,37.199c1.817,1.049,3.292,3.868,3.292,6.293v7.288c0,2.425-1.475,3.541-3.292,2.49Z" fill="#1f3e79"/><path d="M272.811,202.061c0-1.803.815-2.883,1.981-2.886-1.166.003-1.981,1.083-1.981,2.886Zm3.376-2.441l-.084-.048.084.046v.002Zm-.084-.048c-.019-.011-.038-.023-.059-.034.021.011.04.023.059.034Zm-1.302-.397c-.001,0-.003,0-.005,0c.002,0,.004,0,.005,0Z" fill="#4068a4"/><path d="M341.831,253.234c-.396,0-.835-.127-1.295-.392l-64.433-37.199c-1.817-1.051-3.292-3.868-3.292-6.294v-7.288c0-1.803.815-2.883,1.981-2.886h.009c.383.002.803.118,1.243.363.021.011.04.023.059.034l.084.048c-.071.318-.12.657-.12,1.044v7.29c0,2.427,1.474,5.242,3.293,6.295l64.348,37.148c-.261,1.165-.958,1.837-1.877,1.837Z" fill="#233066"/><path d="M320.299,232.756l-38.771-22.385c-.642-.368-1.16-1.36-1.16-2.214c0-.853.518-1.245,1.16-.877l38.771,22.387c.639.368,1.159,1.36,1.159,2.213c0,.854-.52,1.246-1.159.876Z" fill="#d4ebfa"/><path id="e8aVD3HMJ5o139" d="M320.299,232.756l-38.771-22.385c-.642-.368-1.16-1.36-1.16-2.214c0-.853.518-1.245,1.16-.877l38.771,22.387c.639.368,1.159,1.36,1.159,2.213c0,.854-.52,1.246-1.159.876Z" opacity="0" fill="#ed3795"/><path d="M340.536,296.425l-64.433-37.198c-1.817-1.052-3.292-3.868-3.292-6.294v-7.29c0-2.423,1.475-3.538,3.292-2.489l64.433,37.2c1.817,1.049,3.292,3.868,3.292,6.291v7.29c0,2.425-1.475,3.54-3.292,2.49Z" fill="#1f3e79"/><path d="M340.835,296.581c-.003-.002-.007-.003-.01-.005.003.002.007.003.01.005Zm-.019-.01c-.093-.043-.186-.091-.28-.145l-64.433-37.198c-1.817-1.053-3.292-3.868-3.292-6.295c0,2.427,1.475,5.242,3.292,6.295l64.433,37.198c.094.054.187.102.28.145Zm-68.005-50.928c0-1.798.811-2.876,1.973-2.884-1.162.008-1.973,1.086-1.973,2.884Zm1.992-2.884c-.002,0-.003,0-.005,0c.002,0,.003,0,.005,0Z" fill="#4068a4"/><path d="M341.831,296.818c-.31,0-.644-.077-.996-.237l-.019-.01c-.093-.043-.186-.091-.28-.145l-64.433-37.198c-1.817-1.053-3.292-3.868-3.292-6.295v-7.29c0-1.798.811-2.876,1.973-2.884h.019c.398.002.838.128,1.3.395l.084.048c-.071.317-.12.659-.12,1.046v7.29c0,2.425,1.474,5.242,3.293,6.293l64.348,37.15c-.261,1.165-.958,1.837-1.877,1.837Z" fill="#233066"/><path d="M320.299,276.34l-38.771-22.384c-.642-.37-1.16-1.36-1.16-2.216c0-.852.518-1.244,1.16-.875l38.771,22.386c.639.369,1.159,1.359,1.159,2.212c0,.856-.52,1.248-1.159.877Z" fill="#d4ebfa"/><path id="e8aVD3HMJ5o144" d="M320.299,276.34l-38.771-22.384c-.642-.37-1.16-1.36-1.16-2.216c0-.852.518-1.244,1.16-.875l38.771,22.386c.639.369,1.159,1.359,1.159,2.212c0,.856-.52,1.248-1.159.877Z" opacity="0" fill="#ed3795"/><path d="M340.536,339.071l-64.433-37.198c-1.817-1.051-3.292-3.868-3.292-6.295v-7.288c0-2.425,1.475-3.538,3.292-2.489l64.433,37.198c1.817,1.051,3.292,3.868,3.292,6.293v7.288c0,2.425-1.475,3.542-3.292,2.491Z" fill="#1f3e79"/><path d="M272.811,288.29c0-1.798.811-2.876,1.973-2.884-1.162.008-1.973,1.086-1.973,2.884Zm3.376-2.441l-.084-.048.084.046v.002Zm-.084-.048c-.027-.018-.056-.032-.084-.048.028.016.057.03.084.048Zm-1.3-.395c-.002,0-.005,0-.007,0c.002,0,.005,0,.007,0Z" fill="#4068a4"/><path d="M341.831,339.463c-.396,0-.835-.126-1.295-.392l-64.433-37.198c-1.817-1.051-3.292-3.868-3.292-6.295v-7.288c0-1.798.811-2.876,1.973-2.884h.019c.374.002.785.114,1.216.347.028.016.057.03.084.048l.084.048c-.071.318-.12.658-.12,1.046v7.288c0,2.427,1.474,5.242,3.293,6.293l64.348,37.15c-.261,1.163-.958,1.837-1.877,1.837Z" fill="#233066"/><path d="M320.299,318.987l-38.771-22.385c-.642-.368-1.16-1.362-1.16-2.214c0-.853.518-1.245,1.16-.877l38.771,22.387c.639.368,1.159,1.36,1.159,2.213c0,.854-.52,1.246-1.159.876Z" fill="#d4ebfa"/><path id="e8aVD3HMJ5o149" d="M320.299,318.987l-38.771-22.385c-.642-.368-1.16-1.362-1.16-2.214c0-.853.518-1.245,1.16-.877l38.771,22.387c.639.368,1.159,1.36,1.159,2.213c0,.854-.52,1.246-1.159.876Z" opacity="0" fill="#ed3795"/><path d="M269.237,130.929l-6.736-3.891l6.736,3.889v.002Zm0-27.217l-6.736-3.8901l6.736,3.8901v-.001.001Z" fill="#1f3e79"/><path d="M269.237,103.712l-6.736-3.8901l6.736,3.8891" fill="#1f3e79"/><path d="M269.237,130.927l-6.736-3.889v-27.2161l6.736,3.8901v27.217" fill="#3668a5"/><path d="M269.237,174.009l-6.736-3.89l6.736,3.889v.001Z" fill="#1f3e79"/><path d="M269.237,174.042l-6.736-3.888v-27.217l6.736,3.891v27.216" fill="#3668a5"/><path d="M269.237,217.16l-6.736-3.889v-27.218l6.736,3.89v27.217Z" fill="#3668a5"/><path d="M269.237,233.057l-6.736-3.889l6.736,3.889Z" fill="#1f3e79"/><path d="M269.237,260.274l-6.736-3.889v-27.217l6.736,3.889v27.217Z" fill="#3668a5"/><path d="M269.237,303.356l-6.736-3.891l6.736,3.889v.002Z" fill="#1f3e79"/><path d="M269.237,276.174l-6.736-3.89l6.736,3.889v.001Z" fill="#1f3e79"/><path d="M269.237,303.389l-6.736-3.889v-27.216l6.736,3.89v27.217" fill="#3668a5"/><path d="M327.91,149.703c0,.87-.61,1.224-1.363.787-.755-.434-1.365-1.491-1.365-2.361c0-.869.61-1.222,1.365-.789.753.437,1.363,1.494,1.363,2.363Z" fill="#d4ebfa"/><path d="M333.71,152.983c0,.871-.612,1.224-1.365.788-.753-.434-1.363-1.491-1.363-2.362c0-.868.61-1.222,1.363-.788.753.436,1.365,1.494,1.365,2.362Z" fill="#ed3795"/><path d="M339.509,156.264c0,.87-.611,1.224-1.364.787-.752-.433-1.363-1.492-1.363-2.362c0-.867.611-1.221,1.363-.787.753.436,1.364,1.494,1.364,2.362Z" fill="#d4ebfa"/><path d="M327.91,192.35c0,.869-.61,1.222-1.363.789-.755-.437-1.365-1.494-1.365-2.363c0-.87.61-1.223,1.365-.787.753.434,1.363,1.491,1.363,2.361Z" fill="#ed3795"/><path d="M333.71,196.1c0,.868-.612,1.222-1.365.787-.753-.436-1.363-1.493-1.363-2.362c0-.87.61-1.223,1.363-.787.753.434,1.365,1.491,1.365,2.362Z" fill="#d4ebfa"/><path d="M339.509,199.381c0,.868-.611,1.222-1.364.787-.752-.435-1.363-1.493-1.363-2.363c0-.869.611-1.222,1.363-.787.753.435,1.364,1.492,1.364,2.363Z" fill="#fff"/><path d="M327.91,235.935c0,.87-.61,1.22-1.363.787-.755-.435-1.365-1.493-1.365-2.363s.61-1.221,1.365-.787c.753.435,1.363,1.492,1.363,2.363Z" fill="#fff"/><path d="M333.71,239.215c0,.87-.612,1.221-1.365.787-.753-.435-1.363-1.492-1.363-2.362c0-.871.61-1.221,1.363-.788.753.436,1.365,1.493,1.365,2.363Z" fill="#ed3795"/><path d="M339.509,242.496c0,.87-.611,1.22-1.364.787-.752-.435-1.363-1.493-1.363-2.363s.611-1.221,1.363-.787c.753.434,1.364,1.492,1.364,2.363Z" fill="#fff"/><path d="M327.91,278.582c0,.87-.61,1.222-1.363.787-.755-.435-1.365-1.493-1.365-2.363s.61-1.221,1.365-.787c.753.435,1.363,1.492,1.363,2.363Z" fill="#fff"/><path d="M333.71,281.863c0,.868-.612,1.222-1.365.787s-1.363-1.493-1.363-2.363.61-1.222,1.363-.787c.753.434,1.365,1.493,1.365,2.363Z" fill="#d4ebfa"/><path d="M339.509,285.142c0,.87-.611,1.222-1.364.788-.752-.435-1.363-1.492-1.363-2.362c0-.871.611-1.222,1.363-.787.753.433,1.364,1.492,1.364,2.361Z" fill="#d4ebfa"/><path d="M327.91,322.165c0,.871-.61,1.223-1.363.787-.755-.435-1.365-1.492-1.365-2.362c0-.869.61-1.221,1.365-.787.753.436,1.363,1.494,1.363,2.362Z" fill="#fff"/><path d="M333.71,325.446c0,.87-.612,1.222-1.365.787s-1.363-1.493-1.363-2.363c0-.868.61-1.22,1.363-.787.753.437,1.365,1.494,1.365,2.363Z" fill="#ed3795"/><path d="M339.509,328.727c0,.87-.611,1.222-1.364.787-.752-.435-1.363-1.493-1.363-2.363s.611-1.22,1.363-.787c.753.437,1.364,1.494,1.364,2.363Z" fill="#d4ebfa"/><path d="M370.654,149.336v188.981l77.729-44.877v-188.981l-77.729,44.877ZM369.06,341.081v-192.667l.398-.229l80.52-46.489v192.667l-.399.227-80.519,46.491Z" fill="#1f3e79"/><path d="M429.064,188.314L392.96,209.159c-2.427,1.4-4.393-.086-4.393-3.319v-20.019c0-3.233,1.966-6.989,4.393-8.391l36.104-20.843c2.423-1.401,4.391.085,4.391,3.319v20.017c0,3.234-1.968,6.992-4.391,8.391Z" fill="#1f3e79"/><path d="M429.964,156.196c.206.562.326,1.232.326,2.008v20.02c0,3.232-1.968,6.99-4.391,8.39l-36.106,20.845c-.299.172-.593.3-.875.388.651,1.766,2.224,2.376,4.067,1.312l36.104-20.845c2.423-1.4,4.391-5.157,4.391-8.392v-20.016c0-2.835-1.51-4.324-3.516-3.71Z" fill="#5593ce"/><path d="M422.464,176.376c.667-.385,1.21-.072,1.21.699v4.561c0,.769-.543,1.707-1.21,2.091-.667.385-1.209.073-1.209-.696v-4.561c0-.769.542-1.707,1.209-2.094Z" fill="#fff"/><path d="M417.308,180.126c.667-.386,1.207-.074,1.207.699v3.989c0,.77-.54,1.707-1.207,2.093-.667.385-1.208.073-1.208-.698v-3.989c0-.771.541-1.709,1.208-2.094Z" fill="#d4ebfa"/><path d="M412.152,178.25c.669-.384,1.21-.072,1.21.699v8.441c0,.77-.541,1.707-1.21,2.093-.667.387-1.207.073-1.207-.698v-8.441c0-.771.54-1.708,1.207-2.094Z" fill="#ed3795"/><path d="M406.941,176.376c.667-.385,1.207-.073,1.207.698v13.306c0,.771-.54,1.707-1.207,2.094-.669.385-1.21.072-1.21-.699v-13.305c0-.772.541-1.71,1.21-2.094Z" fill="#d4ebfa"/><path d="M401.784,181.063c.668-.386,1.208-.074,1.208.699v11.909c0,.773-.54,1.709-1.208,2.094-.667.386-1.208.074-1.208-.697v-11.911c0-.771.541-1.707,1.208-2.094Z" fill="#d4ebfa"/><path d="M396.572,189.499c.667-.386,1.208-.074,1.208.697v6.467c0,.773-.541,1.71-1.208,2.094-.669.386-1.21.074-1.21-.697v-6.469c0-.771.541-1.707,1.21-2.092Z" fill="#fff"/><path d="M421.314,174.213c0,.76.532,1.065,1.188.688.656-.381,1.189-1.302,1.189-2.059c0-.758-.533-1.065-1.189-.686-.656.377-1.188,1.299-1.188,2.057Z" fill="#ed3795"/><path d="M421.314,169.528c0,.758.532,1.064,1.188.686.656-.379,1.189-1.3,1.189-2.058c0-.759-.533-1.066-1.189-.687-.656.381-1.188,1.301-1.188,2.059Z" opacity="0" fill="#fff"/><path d="M559.904,66.5478h-5.495v106.5912h5.495v-106.5912Z" fill="#fff"/><g transform="translate(.000001 0)"><path d="M348.7,512.68l-55.207-31.874c-3.389-1.957-2.963-5.375.948-7.634l53.307-30.775c3.913-2.259,9.831-2.504,13.219-.549l55.207,31.874c3.39,1.957,2.965,5.374-.948,7.632l-53.307,30.778c-3.913,2.258-9.831,2.503-13.219.548Z" opacity="0.3" fill="#0030ad"/><path d="M350.238,492.496c2.438,1.404,7.146,1.148,10.085-.549l53.306-30.777c1.341-.773,1.662-1.473,1.67-1.605-.019-.036-.198-.294-.718-.596l-55.21-31.875c-2.432-1.404-7.143-1.148-10.083.549l-53.307,30.775c-1.34.775-1.66,1.474-1.668,1.605.019.04.198.297.72.598l55.207,31.875h-.002Zm4.204,7.185c-2.698,0-5.301-.579-7.337-1.754h-.002l-55.205-31.875c-2.451-1.414-3.856-3.612-3.856-6.031c0-2.706,1.75-5.271,4.803-7.032l53.308-30.775c4.932-2.851,11.96-3.088,16.353-.549l55.21,31.875c2.449,1.412,3.854,3.61,3.854,6.027c0,2.707-1.752,5.271-4.806,7.034l-53.305,30.777c-2.645,1.528-5.896,2.303-9.017,2.303Z" fill="#fff"/></g><g id="e8aVD3HMJ5o191_to" transform="translate(354.834046,430.836746)"><g transform="translate(-354.834045,-430.836746)"><path d="M418.435,439.919v-19.047l-42.714-.025-14.763-8.523c-3.388-1.957-9.306-1.71-13.219.548l-13.773,7.954-42.752-.026v19.591c-.096,1.325.643,2.603,2.27,3.542l55.207,31.874c3.388,1.955,9.306,1.71,13.219-.548l53.307-30.776c2.257-1.304,3.346-2.991,3.218-4.564Z" fill="url(#e8aVD3HMJ5o192-fill)"/><path d="M354.825,411.003c-2.479.061-5.051.685-7.086,1.859l-13.773,7.954-42.752-.026v19.591c-.096,1.325.643,2.603,2.27,3.542l55.207,31.874c1.626.941,3.84,1.366,6.134,1.31v-66.104Z" clip-rule="evenodd" fill="url(#e8aVD3HMJ5o193-fill)" fill-rule="evenodd"/><path d="M296.053,420.848l-4.839-.003v19.591c-.096,1.324.643,2.603,2.27,3.542l2.569,1.482v-24.612Z" fill="#d4ebfa"/><path d="M349.552,476.484c2.921,1.252,7.149,1.182,10.567-.122v-22.243h-10.567v22.365Z" fill="url(#e8aVD3HMJ5o195-fill)"/><path d="M348.7,456.441l-55.207-31.873c-3.389-1.956-2.963-5.375.948-7.633l53.307-30.776c3.913-2.259,9.831-2.503,13.219-.549l55.207,31.875c3.39,1.956,2.965,5.371-.948,7.632l-53.307,30.777c-3.913,2.259-9.831,2.503-13.219.547Z" clip-rule="evenodd" fill="url(#e8aVD3HMJ5o196-fill)" fill-rule="evenodd"/><path d="M415.226,421.354l-53.307,30.775c-3.912,2.259-9.831,2.504-13.219.549l-55.207-31.874c-.757-.436-1.31-.947-1.691-1.499-1.164,1.871-.637,3.904,1.691,5.248L348.7,456.426c3.388,1.957,9.307,1.712,13.219-.547l53.307-30.777c3.039-1.755,3.962-4.207,2.64-6.132-.532.855-1.415,1.675-2.64,2.384Z" fill="#fff"/><path d="M398.123,444.932c0,1.422-.998,3.151-2.228,3.863-1.233.71-2.231.134-2.231-1.288c0-1.423.998-3.151,2.231-3.863c1.23-.71,2.228-.134,2.228,1.288Z" fill="#d4ebfa"/><path d="M405.329,440.714c0,1.422-.999,3.151-2.23,3.862-1.232.71-2.23.134-2.23-1.288c0-1.421.998-3.151,2.23-3.862c1.231-.71,2.23-.134,2.23,1.288Z" fill="#d4ebfa"/><path d="M412.476,436.496c0,1.424-.998,3.153-2.23,3.863-1.232.711-2.23.135-2.23-1.287s.998-3.15,2.23-3.863c1.232-.711,2.23-.135,2.23,1.287Z" fill="#d4ebfa"/><path d="M351.971,436.801l-25.836-14.915c-1.585-.915-1.385-2.515.446-3.574l24.945-14.402c1.83-1.057,4.601-1.171,6.186-.256l25.833,14.917c1.585.915,1.387,2.513-.443,3.571l-24.945,14.401c-1.83,1.058-4.601,1.171-6.186.258Z" fill="url(#e8aVD3HMJ5o201-fill)"/><path d="M354.446,424.11l-3.575-2.064c-.217-.126-.192-.347.061-.493l3.454-1.993c.252-.145.635-.163.854-.035l3.575,2.064c.219.126.19.347-.062.494l-3.451,1.991c-.253.148-.638.164-.856.036Z" fill="#d4ebfa"/><path d="M326.135,421.886l.074.041.372-.256l24.945-14.401c1.83-1.058,4.601-1.171,6.186-.256l25.759,14.873c1.462-1.048,1.539-2.471.074-3.316l-25.833-14.917c-1.585-.915-4.356-.801-6.186.256l-24.945,14.402c-1.831,1.059-2.031,2.659-.446,3.574Z" fill="#386dab"/></g></g><g transform="translate(0 0.000001)"><path d="M551.037,372.086l-55.205-31.874c-3.388-1.957-2.965-5.374.95-7.632l53.305-30.778c3.911-2.258,9.831-2.503,13.218-.548l55.208,31.874c3.389,1.957,2.965,5.374-.95,7.634l-53.305,30.776c-3.913,2.258-9.831,2.503-13.221.548Z" opacity="0.3" fill="#0030ad"/><path d="M552.575,351.903c2.438,1.401,7.147,1.145,10.089-.551l53.303-30.775c1.341-.774,1.662-1.473,1.67-1.605-.019-.038-.198-.296-.718-.598L561.71,286.499c-2.433-1.402-7.144-1.146-10.082.549l-53.307,30.777c-1.34.775-1.662,1.474-1.67,1.605.019.038.198.296.718.597l55.209,31.876h-.003Zm4.205,7.184c-2.702,0-5.303-.579-7.337-1.755h-.002l-55.207-31.875c-2.449-1.414-3.854-3.612-3.854-6.029c0-2.706,1.752-5.271,4.806-7.032l53.305-30.777c4.933-2.851,11.965-3.086,16.355-.549l55.208,31.875c2.449,1.412,3.854,3.61,3.854,6.029c0,2.707-1.752,5.271-4.805,7.034l-53.304,30.775c-2.647,1.528-5.898,2.304-9.019,2.304Z" fill="#fff"/></g><g id="e8aVD3HMJ5o207_to" transform="translate(557.172714,290.114296)"><g transform="translate(-557.172714,-290.114296)"><path d="M620.774,299.326v-19.049l-42.712-.024-14.766-8.524c-3.387-1.955-9.307-1.71-13.218.549l-13.775,7.953-42.75-.024v19.589c-.098,1.325.641,2.603,2.27,3.542l55.205,31.875c3.39,1.954,9.308,1.71,13.221-.549l53.305-30.776c2.259-1.303,3.347-2.989,3.22-4.562Z" fill="url(#e8aVD3HMJ5o208-fill)"/><path d="M557.164,270.409c-2.479.061-5.053.686-7.086,1.859l-13.775,7.953-42.75-.024v19.59c-.098,1.324.641,2.602,2.27,3.541l55.205,31.875c1.628.941,3.844,1.366,6.136,1.31v-66.104Z" clip-rule="evenodd" fill="url(#e8aVD3HMJ5o209-fill)" fill-rule="evenodd"/><path d="M498.39,280.252l-4.837-.001v19.589c-.098,1.325.641,2.603,2.27,3.542l2.567,1.484v-24.614Z" fill="#d4ebfa"/><path d="M551.891,335.419c2.921,1.253,7.149,1.184,10.565-.12v-22.243h-10.565v22.363Z" fill="url(#e8aVD3HMJ5o211-fill)"/><path d="M551.037,315.849l-55.205-31.875c-3.388-1.956-2.965-5.375.95-7.634l53.305-30.775c3.911-2.259,9.831-2.504,13.218-.549l55.208,31.875c3.389,1.956,2.965,5.373-.95,7.633L564.258,315.3c-3.913,2.259-9.831,2.503-13.221.549Z" clip-rule="evenodd" fill="url(#e8aVD3HMJ5o212-fill)" fill-rule="evenodd"/><path d="M617.562,280.76l-53.305,30.775c-3.913,2.259-9.831,2.504-13.221.549l-55.205-31.875c-.755-.435-1.312-.947-1.691-1.498-1.163,1.871-.635,3.904,1.691,5.248l55.205,31.875c3.39,1.954,9.308,1.71,13.221-.549l53.305-30.776c3.043-1.756,3.966-4.208,2.641-6.133-.531.854-1.414,1.675-2.641,2.384Z" fill="#fff"/><path d="M600.46,304.338c0,1.42-.998,3.15-2.23,3.861-1.23.711-2.228.135-2.228-1.287s.998-3.152,2.228-3.862c1.232-.71,2.23-.134,2.23,1.288Z" fill="#d4ebfa"/><path d="M607.609,300.12c0,1.424-.999,3.151-2.229,3.863-1.233.71-2.231.135-2.231-1.289c0-1.421.998-3.15,2.231-3.862c1.23-.71,2.229-.134,2.229,1.288Z" fill="#d4ebfa"/><path d="M614.814,295.902c0,1.423-.998,3.152-2.23,3.862s-2.23.134-2.23-1.288c0-1.42.998-3.149,2.23-3.861c1.232-.711,2.23-.136,2.23,1.287Z" fill="#d4ebfa"/><path d="M554.248,295.737l-25.832-14.915c-1.586-.915-1.387-2.514.443-3.572l24.945-14.401c1.831-1.058,4.599-1.173,6.185-.258l25.836,14.917c1.586.915,1.386,2.514-.446,3.57l-24.943,14.403c-1.834,1.056-4.601,1.171-6.188.256Z" fill="url(#e8aVD3HMJ5o217-fill)"/><path d="M556.725,283.515l-3.574-2.064c-.219-.126-.19-.345.062-.493l3.451-1.991c.254-.147.636-.163.854-.037l3.577,2.064c.219.126.192.348-.061.494l-3.454,1.993c-.254.146-.636.162-.855.034Z" fill="#d4ebfa"/><path d="M528.416,280.822l.072.042.371-.255l24.945-14.403c1.831-1.056,4.599-1.171,6.185-.256l25.763,14.874c1.46-1.046,1.537-2.47.073-3.316l-25.836-14.917c-1.586-.915-4.354-.8-6.185.258L528.859,277.25c-1.83,1.058-2.029,2.657-.443,3.572Z" fill="url(#e8aVD3HMJ5o219-fill)"/></g></g><g transform="translate(0 0.000001)"><path d="M146.421,372.086L91.2128,340.212c-3.3881-1.957-2.9626-5.374.9501-7.632L145.47,301.802c3.912-2.258,9.831-2.503,13.219-.548l55.207,31.874c3.388,1.957,2.963,5.374-.948,7.634l-53.307,30.776c-3.914,2.258-9.832,2.503-13.22.548Z" opacity="0.3" fill="#0030ad"/><path d="M147.96,351.903c2.433,1.401,7.141,1.145,10.084-.551l53.305-30.775c1.341-.773,1.662-1.473,1.669-1.605-.018-.038-.199-.296-.719-.598l-55.207-31.875c-2.433-1.402-7.144-1.146-10.082.549L93.7031,317.825c-1.3405.775-1.6621,1.474-1.6701,1.605.0176.038.1984.296.7183.597l55.2107,31.876h-.002Zm4.202,7.184c-2.698,0-5.301-.579-7.336-1.755h-.001L89.616,325.457c-2.4491-1.414-3.8536-3.612-3.8536-6.029c0-2.706,1.75-5.271,4.8054-7.032l53.3052-30.777c4.935-2.851,11.964-3.086,16.355-.549l55.207,31.875c2.449,1.412,3.853,3.61,3.855,6.029c0,2.707-1.75,5.271-4.804,7.034l-53.307,30.775c-2.645,1.528-5.894,2.304-9.017,2.304Z" fill="#fff"/></g><g id="e8aVD3HMJ5o223_to" transform="translate(152.526192,301.391625)"><g transform="translate(-152.526192,-301.391624)"><path d="M216.157,299.326v-19.049l-42.712-.024-14.765-8.524c-3.388-1.955-9.307-1.71-13.219.549l-13.775,7.953-42.7522-.024v19.589c-.0944,1.325.6431,2.603,2.2699,3.542l55.2083,31.875c3.388,1.954,9.306,1.71,13.22-.549l53.307-30.776c2.255-1.303,3.344-2.989,3.218-4.562Z" fill="url(#e8aVD3HMJ5o224-fill)"/><path d="M152.547,270.409c-2.479.061-5.053.686-7.086,1.859l-13.775,7.953-42.7522-.024v19.59c-.0944,1.324.6431,2.602,2.2699,3.541l55.2083,31.875c1.627.941,3.841,1.366,6.135,1.31v-66.104Z" clip-rule="evenodd" fill="url(#e8aVD3HMJ5o225-fill)" fill-rule="evenodd"/><path d="M93.7743,280.252l-4.8405-.001v19.589c-.0944,1.325.6431,2.603,2.2699,3.542l2.5706,1.484v-24.614Z" fill="#d4ebfa"/><path d="M147.214,335.419c2.924,1.253,7.152,1.184,10.569-.12v-22.243h-10.569v22.363Z" fill="url(#e8aVD3HMJ5o227-fill)"/><path d="M146.421,315.849L91.2128,283.974c-3.3881-1.956-2.9626-5.375.9501-7.634L145.47,245.565c3.912-2.259,9.831-2.504,13.219-.549l55.207,31.875c3.388,1.956,2.963,5.373-.948,7.633L159.641,315.3c-3.914,2.259-9.832,2.503-13.22.549Z" clip-rule="evenodd" fill="url(#e8aVD3HMJ5o228-fill)" fill-rule="evenodd"/><path d="M212.947,280.76L159.64,311.535c-3.914,2.259-9.831,2.504-13.22.549L91.2118,280.209c-.7535-.435-1.3101-.947-1.6893-1.498-1.1645,1.871-.6366,3.904,1.6893,5.248L146.42,315.834c3.389,1.954,9.306,1.71,13.22-.549l53.307-30.776c3.039-1.756,3.964-4.208,2.637-6.133-.529.854-1.412,1.675-2.637,2.384Z" fill="#fff"/><path d="M195.843,304.338c0,1.42-.998,3.15-2.23,3.861-1.231.711-2.229.135-2.229-1.287s.998-3.152,2.229-3.862c1.232-.71,2.23-.134,2.23,1.288Z" fill="#d4ebfa"/><path d="M149.631,295.737l-25.833-14.915c-1.587-.915-1.387-2.514.443-3.572l24.945-14.401c1.83-1.058,4.6-1.173,6.186-.258l25.834,14.917c1.587.915,1.389,2.514-.443,3.57l-24.947,14.403c-1.83,1.056-4.6,1.171-6.185.256Z" fill="url(#e8aVD3HMJ5o231-fill)"/><path d="M202.991,300.12c0,1.424-.998,3.151-2.23,3.863-1.23.71-2.23.135-2.23-1.289c0-1.421,1-3.15,2.23-3.862c1.232-.71,2.23-.134,2.23,1.288Z" fill="#d4ebfa"/><path d="M152.108,283.515l-3.573-2.064c-.221-.126-.194-.345.061-.493l3.45-1.991c.253-.147.637-.163.856-.037l3.574,2.064c.22.126.193.348-.061.494l-3.452,1.993c-.253.146-.635.162-.855.034Z" fill="#d4ebfa"/><path d="M123.798,280.822l.073.042.37-.255l24.945-14.403c1.83-1.056,4.601-1.171,6.186-.256l25.76,14.874c1.464-1.046,1.539-2.47.074-3.316l-25.834-14.917c-1.585-.915-4.356-.8-6.186.258L124.241,277.25c-1.83,1.058-2.03,2.657-.443,3.572Z" fill="#386dab"/><path d="M210.196,295.902c0,1.423-.998,3.152-2.23,3.862s-2.23.134-2.23-1.288c0-1.42.998-3.149,2.23-3.861c1.232-.711,2.23-.136,2.23,1.287Z" fill="#d4ebfa"/></g></g></svg>